<?xml version="1.0" encoding="utf-8"?>
<!-- Generator: Adobe Illustrator 19.0.0, SVG Export Plug-In . SVG Version: 6.00 Build 0)  -->
<svg version="1.0" id="Layer_1" xmlns="http://www.w3.org/2000/svg" xmlns:xlink="http://www.w3.org/1999/xlink" x="0px" y="0px"
	 viewBox="0 0 188 48" style="enable-background:new 0 0 188 48;" xml:space="preserve">
<style type="text/css">
	.st0{fill:#323031;}
	.st1{fill:#58595B;}
	.st2{fill:#F9E300;}
	.st3{fill:url(#XMLID_413_);}
	.st4{fill:url(#XMLID_414_);}
	.st5{fill:#F1CF13;}
	.st6{opacity:0.2;}
	.st7{clip-path:url(#XMLID_415_);fill:#231F20;}
	.st8{clip-path:url(#XMLID_415_);fill:#242121;}
	.st9{clip-path:url(#XMLID_415_);fill:#252222;}
	.st10{clip-path:url(#XMLID_415_);fill:#272424;}
	.st11{clip-path:url(#XMLID_415_);fill:#282525;}
	.st12{clip-path:url(#XMLID_415_);fill:#292626;}
	.st13{clip-path:url(#XMLID_415_);fill:#2A2827;}
	.st14{clip-path:url(#XMLID_415_);fill:#2B2928;}
	.st15{clip-path:url(#XMLID_415_);fill:#2D2A29;}
	.st16{clip-path:url(#XMLID_415_);fill:#2E2C2B;}
	.st17{clip-path:url(#XMLID_415_);fill:#302E2D;}
	.st18{clip-path:url(#XMLID_415_);fill:#32302E;}
	.st19{clip-path:url(#XMLID_415_);fill:#33312F;}
	.st20{clip-path:url(#XMLID_415_);fill:#343230;}
	.st21{clip-path:url(#XMLID_415_);fill:#353331;}
	.st22{clip-path:url(#XMLID_415_);fill:#363532;}
	.st23{clip-path:url(#XMLID_415_);fill:#373633;}
	.st24{clip-path:url(#XMLID_415_);fill:#383734;}
	.st25{clip-path:url(#XMLID_415_);fill:#3A3835;}
	.st26{clip-path:url(#XMLID_415_);fill:#3B3936;}
	.st27{clip-path:url(#XMLID_415_);fill:#3C3B37;}
	.st28{clip-path:url(#XMLID_415_);fill:#3D3C38;}
	.st29{clip-path:url(#XMLID_415_);fill:#3E3D39;}
	.st30{clip-path:url(#XMLID_415_);fill:#3F3E3A;}
	.st31{clip-path:url(#XMLID_415_);fill:#403F3A;}
	.st32{clip-path:url(#XMLID_415_);fill:#41403B;}
	.st33{clip-path:url(#XMLID_415_);fill:#42413C;}
	.st34{clip-path:url(#XMLID_415_);fill:#43423D;}
	.st35{clip-path:url(#XMLID_415_);fill:#44433D;}
	.st36{clip-path:url(#XMLID_415_);fill:#45443E;}
	.st37{clip-path:url(#XMLID_415_);fill:#46453F;}
	.st38{clip-path:url(#XMLID_415_);fill:#47463F;}
	.st39{clip-path:url(#XMLID_415_);fill:#484740;}
	.st40{clip-path:url(#XMLID_415_);fill:#494841;}
	.st41{clip-path:url(#XMLID_415_);fill:#4A4941;}
	.st42{clip-path:url(#XMLID_415_);fill:#4B4A42;}
	.st43{clip-path:url(#XMLID_415_);fill:#4B4B43;}
	.st44{clip-path:url(#XMLID_415_);fill:#4C4C43;}
	.st45{clip-path:url(#XMLID_415_);fill:#4D4D44;}
	.st46{clip-path:url(#XMLID_415_);fill:#4E4D45;}
	.st47{clip-path:url(#XMLID_415_);fill:#4F4E45;}
	.st48{clip-path:url(#XMLID_415_);fill:#504F46;}
	.st49{clip-path:url(#XMLID_415_);fill:#515046;}
	.st50{clip-path:url(#XMLID_415_);fill:#525147;}
	.st51{clip-path:url(#XMLID_415_);fill:#535248;}
	.st52{clip-path:url(#XMLID_415_);fill:#545348;}
	.st53{clip-path:url(#XMLID_415_);fill:#555449;}
	.st54{clip-path:url(#XMLID_415_);fill:#565549;}
	.st55{clip-path:url(#XMLID_415_);fill:#56564A;}
	.st56{clip-path:url(#XMLID_415_);fill:#57564A;}
	.st57{clip-path:url(#XMLID_415_);fill:#58574B;}
	.st58{clip-path:url(#XMLID_415_);fill:#59584B;}
	.st59{clip-path:url(#XMLID_415_);fill:#5A594C;}
	.st60{clip-path:url(#XMLID_415_);fill:#5B5A4C;}
	.st61{clip-path:url(#XMLID_415_);fill:#5C5B4D;}
	.st62{clip-path:url(#XMLID_415_);fill:#5D5C4D;}
	.st63{clip-path:url(#XMLID_415_);fill:#5E5C4E;}
	.st64{clip-path:url(#XMLID_415_);fill:#5E5D4E;}
	.st65{clip-path:url(#XMLID_415_);fill:#5F5E4E;}
	.st66{clip-path:url(#XMLID_415_);fill:#605F4F;}
	.st67{clip-path:url(#XMLID_415_);fill:#61604F;}
	.st68{clip-path:url(#XMLID_415_);fill:#626150;}
	.st69{clip-path:url(#XMLID_415_);fill:#636150;}
	.st70{clip-path:url(#XMLID_415_);fill:#646250;}
	.st71{clip-path:url(#XMLID_415_);fill:#646351;}
	.st72{clip-path:url(#XMLID_415_);fill:#656451;}
	.st73{clip-path:url(#XMLID_415_);fill:#666552;}
	.st74{clip-path:url(#XMLID_415_);fill:#676552;}
	.st75{clip-path:url(#XMLID_415_);fill:#686652;}
	.st76{clip-path:url(#XMLID_415_);fill:#696753;}
	.st77{clip-path:url(#XMLID_415_);fill:#6A6853;}
	.st78{clip-path:url(#XMLID_415_);fill:#6A6953;}
	.st79{clip-path:url(#XMLID_415_);fill:#6B6954;}
	.st80{clip-path:url(#XMLID_415_);fill:#6C6A54;}
	.st81{clip-path:url(#XMLID_415_);fill:#6D6B54;}
	.st82{clip-path:url(#XMLID_415_);fill:#6E6C54;}
	.st83{clip-path:url(#XMLID_415_);fill:#6E6C55;}
	.st84{clip-path:url(#XMLID_415_);fill:#6F6D55;}
	.st85{clip-path:url(#XMLID_415_);fill:#706E55;}
	.st86{clip-path:url(#XMLID_415_);fill:#716F55;}
	.st87{clip-path:url(#XMLID_415_);fill:#727056;}
	.st88{clip-path:url(#XMLID_415_);fill:#737156;}
	.st89{clip-path:url(#XMLID_415_);fill:#747256;}
	.st90{clip-path:url(#XMLID_415_);fill:#757257;}
	.st91{clip-path:url(#XMLID_415_);fill:#767357;}
	.st92{clip-path:url(#XMLID_415_);fill:#767457;}
	.st93{clip-path:url(#XMLID_415_);fill:#777557;}
	.st94{clip-path:url(#XMLID_415_);fill:#787557;}
	.st95{clip-path:url(#XMLID_415_);fill:#797658;}
	.st96{clip-path:url(#XMLID_415_);fill:#7A7758;}
	.st97{clip-path:url(#XMLID_415_);fill:#7A7858;}
	.st98{clip-path:url(#XMLID_415_);fill:#7B7858;}
	.st99{clip-path:url(#XMLID_415_);fill:#7C7958;}
	.st100{clip-path:url(#XMLID_415_);fill:#7D7A58;}
	.st101{clip-path:url(#XMLID_415_);fill:#7D7A59;}
	.st102{clip-path:url(#XMLID_415_);fill:#7E7B59;}
	.st103{clip-path:url(#XMLID_415_);fill:#7F7C59;}
	.st104{clip-path:url(#XMLID_415_);fill:#807D59;}
	.st105{clip-path:url(#XMLID_415_);fill:#807E59;}
	.st106{clip-path:url(#XMLID_415_);fill:#817F59;}
	.st107{clip-path:url(#XMLID_415_);fill:#827F59;}
	.st108{clip-path:url(#XMLID_415_);fill:#83805A;}
	.st109{clip-path:url(#XMLID_415_);fill:#84815A;}
	.st110{clip-path:url(#XMLID_415_);fill:#85815A;}
	.st111{clip-path:url(#XMLID_415_);fill:#86825A;}
	.st112{clip-path:url(#XMLID_415_);fill:#86835A;}
	.st113{clip-path:url(#XMLID_415_);fill:#87835A;}
	.st114{clip-path:url(#XMLID_415_);fill:#88845A;}
	.st115{clip-path:url(#XMLID_415_);fill:#89855A;}
	.st116{clip-path:url(#XMLID_415_);fill:#8A855A;}
	.st117{clip-path:url(#XMLID_415_);fill:#8A865A;}
	.st118{clip-path:url(#XMLID_415_);fill:#8B875A;}
	.st119{clip-path:url(#XMLID_415_);fill:#8C885B;}
	.st120{clip-path:url(#XMLID_415_);fill:#8D895B;}
	.st121{clip-path:url(#XMLID_415_);fill:#8E8A5B;}
	.st122{clip-path:url(#XMLID_415_);fill:#8F8A5B;}
	.st123{clip-path:url(#XMLID_415_);fill:#908B5B;}
	.st124{clip-path:url(#XMLID_415_);fill:#918C5B;}
	.st125{clip-path:url(#XMLID_415_);fill:#918D5B;}
	.st126{clip-path:url(#XMLID_415_);fill:#928D5B;}
	.st127{clip-path:url(#XMLID_415_);fill:#938E5B;}
	.st128{clip-path:url(#XMLID_415_);fill:#948F5B;}
	.st129{clip-path:url(#XMLID_415_);fill:#948F5A;}
	.st130{clip-path:url(#XMLID_415_);fill:#96915B;}
	.st131{clip-path:url(#XMLID_415_);fill:#97925B;}
	.st132{clip-path:url(#XMLID_415_);fill:#98925B;}
	.st133{clip-path:url(#XMLID_415_);fill:#99935B;}
	.st134{clip-path:url(#XMLID_415_);fill:#99945B;}
	.st135{clip-path:url(#XMLID_415_);fill:#9A945B;}
	.st136{clip-path:url(#XMLID_415_);fill:#9B955B;}
	.st137{clip-path:url(#XMLID_415_);fill:#9C965B;}
	.st138{clip-path:url(#XMLID_415_);fill:#9D975B;}
	.st139{clip-path:url(#XMLID_415_);fill:#9E985B;}
	.st140{clip-path:url(#XMLID_415_);fill:#9F995B;}
	.st141{clip-path:url(#XMLID_415_);fill:#A09A5B;}
	.st142{clip-path:url(#XMLID_415_);fill:#A19A5B;}
	.st143{clip-path:url(#XMLID_415_);fill:#A19B5B;}
	.st144{clip-path:url(#XMLID_415_);fill:#A29C5A;}
	.st145{clip-path:url(#XMLID_415_);fill:#A39C5A;}
	.st146{clip-path:url(#XMLID_415_);fill:#A49D5A;}
	.st147{clip-path:url(#XMLID_415_);fill:#A59E5A;}
	.st148{clip-path:url(#XMLID_415_);fill:#A69F5A;}
	.st149{clip-path:url(#XMLID_415_);fill:#A7A05A;}
	.st150{clip-path:url(#XMLID_415_);fill:#A8A15A;}
	.st151{clip-path:url(#XMLID_415_);fill:#A9A25A;}
	.st152{clip-path:url(#XMLID_415_);fill:#AAA25A;}
	.st153{clip-path:url(#XMLID_415_);fill:#ABA35A;}
	.st154{clip-path:url(#XMLID_415_);fill:#ABA459;}
	.st155{clip-path:url(#XMLID_415_);fill:#ACA559;}
	.st156{clip-path:url(#XMLID_415_);fill:#ADA559;}
	.st157{clip-path:url(#XMLID_415_);fill:#AEA659;}
	.st158{clip-path:url(#XMLID_415_);fill:#AFA759;}
	.st159{clip-path:url(#XMLID_415_);fill:#B0A859;}
	.st160{clip-path:url(#XMLID_415_);fill:#B1A858;}
	.st161{clip-path:url(#XMLID_415_);fill:#B1A958;}
	.st162{clip-path:url(#XMLID_415_);fill:#B2AA58;}
	.st163{clip-path:url(#XMLID_415_);fill:#B3AB58;}
	.st164{clip-path:url(#XMLID_415_);fill:#B4AB58;}
	.st165{clip-path:url(#XMLID_415_);fill:#B5AC57;}
	.st166{clip-path:url(#XMLID_415_);fill:#B6AD57;}
	.st167{clip-path:url(#XMLID_415_);fill:#B7AE57;}
	.st168{clip-path:url(#XMLID_415_);fill:#B8AF56;}
	.st169{clip-path:url(#XMLID_415_);fill:#B9B056;}
	.st170{clip-path:url(#XMLID_415_);fill:#BAB156;}
	.st171{clip-path:url(#XMLID_415_);fill:#BBB155;}
	.st172{clip-path:url(#XMLID_415_);fill:#BCB255;}
	.st173{clip-path:url(#XMLID_415_);fill:#BDB355;}
	.st174{clip-path:url(#XMLID_415_);fill:#BEB454;}
	.st175{clip-path:url(#XMLID_415_);fill:#BFB554;}
	.st176{clip-path:url(#XMLID_415_);fill:#C0B653;}
	.st177{clip-path:url(#XMLID_415_);fill:#C1B753;}
	.st178{clip-path:url(#XMLID_415_);fill:#C2B752;}
	.st179{clip-path:url(#XMLID_415_);fill:#C3B852;}
	.st180{clip-path:url(#XMLID_415_);fill:#C4B952;}
	.st181{clip-path:url(#XMLID_415_);fill:#C5BA51;}
	.st182{clip-path:url(#XMLID_415_);fill:#C6BB50;}
	.st183{clip-path:url(#XMLID_415_);fill:#C7BC50;}
	.st184{clip-path:url(#XMLID_415_);fill:#C8BD4F;}
	.st185{clip-path:url(#XMLID_415_);fill:#C9BD4F;}
	.st186{clip-path:url(#XMLID_415_);fill:#CABE4E;}
	.st187{clip-path:url(#XMLID_415_);fill:#CBBF4E;}
	.st188{clip-path:url(#XMLID_415_);fill:#CCC04D;}
	.st189{clip-path:url(#XMLID_415_);fill:#CCC04C;}
	.st190{clip-path:url(#XMLID_415_);fill:#CDC14C;}
	.st191{clip-path:url(#XMLID_415_);fill:#CEC24B;}
	.st192{clip-path:url(#XMLID_415_);fill:#CFC34B;}
	.st193{clip-path:url(#XMLID_415_);fill:#D0C34A;}
	.st194{clip-path:url(#XMLID_415_);fill:#D1C449;}
	.st195{clip-path:url(#XMLID_415_);fill:#D2C549;}
	.st196{clip-path:url(#XMLID_415_);fill:#D3C648;}
	.st197{clip-path:url(#XMLID_415_);fill:#D4C647;}
	.st198{clip-path:url(#XMLID_415_);fill:#D4C746;}
	.st199{clip-path:url(#XMLID_415_);fill:#D5C846;}
	.st200{clip-path:url(#XMLID_415_);fill:#D6C845;}
	.st201{clip-path:url(#XMLID_415_);fill:#D7C944;}
	.st202{clip-path:url(#XMLID_415_);fill:#D8CA43;}
	.st203{clip-path:url(#XMLID_415_);fill:#D9CB42;}
	.st204{clip-path:url(#XMLID_415_);fill:#DACB42;}
	.st205{clip-path:url(#XMLID_415_);fill:#DBCC41;}
	.st206{clip-path:url(#XMLID_415_);fill:#DBCD40;}
	.st207{clip-path:url(#XMLID_415_);fill:#DCCE3F;}
	.st208{clip-path:url(#XMLID_415_);fill:#DDCE3E;}
	.st209{clip-path:url(#XMLID_415_);fill:#DECF3D;}
	.st210{clip-path:url(#XMLID_415_);fill:#DFD03C;}
	.st211{clip-path:url(#XMLID_415_);fill:#E0D13B;}
	.st212{clip-path:url(#XMLID_415_);fill:#E1D13A;}
	.st213{clip-path:url(#XMLID_415_);fill:#E2D239;}
	.st214{clip-path:url(#XMLID_415_);fill:#E2D338;}
	.st215{clip-path:url(#XMLID_415_);fill:#E3D337;}
	.st216{clip-path:url(#XMLID_415_);fill:#E4D436;}
	.st217{clip-path:url(#XMLID_415_);fill:#E5D535;}
	.st218{clip-path:url(#XMLID_415_);fill:#E6D634;}
	.st219{clip-path:url(#XMLID_415_);fill:#E7D633;}
	.st220{clip-path:url(#XMLID_415_);fill:#E8D731;}
	.st221{clip-path:url(#XMLID_415_);fill:#E9D830;}
	.st222{clip-path:url(#XMLID_415_);fill:#E9D92F;}
	.st223{clip-path:url(#XMLID_415_);fill:#EAD92E;}
	.st224{clip-path:url(#XMLID_415_);fill:#EBDA2C;}
	.st225{clip-path:url(#XMLID_415_);fill:#ECDB2B;}
	.st226{clip-path:url(#XMLID_415_);fill:#EDDC29;}
	.st227{clip-path:url(#XMLID_415_);fill:#EEDC28;}
	.st228{clip-path:url(#XMLID_415_);fill:#EFDD26;}
	.st229{clip-path:url(#XMLID_415_);fill:#F0DE25;}
	.st230{clip-path:url(#XMLID_415_);fill:#F1DF23;}
	.st231{clip-path:url(#XMLID_415_);fill:#F2DF21;}
	.st232{clip-path:url(#XMLID_415_);fill:#F2E01E;}
	.st233{clip-path:url(#XMLID_415_);fill:#F3E11C;}
	.st234{clip-path:url(#XMLID_415_);fill:#F4E11A;}
	.st235{clip-path:url(#XMLID_415_);fill:#F5E217;}
	.st236{clip-path:url(#XMLID_415_);fill:#F6E314;}
	.st237{clip-path:url(#XMLID_415_);fill:#F7E411;}
	.st238{clip-path:url(#XMLID_415_);fill:#F8E40D;}
	.st239{clip-path:url(#XMLID_415_);fill:#F9E508;}
	.st240{clip-path:url(#XMLID_415_);fill:#FAE603;}
	.st241{clip-path:url(#XMLID_415_);fill:#FBE700;}
	.st242{clip-path:url(#XMLID_415_);fill:#FCE800;}
	.st243{clip-path:url(#XMLID_415_);fill:#FDE900;}
	.st244{clip-path:url(#XMLID_415_);fill:#FFEA00;}
	.st245{clip-path:url(#XMLID_415_);fill:#FFEB00;}
	.st246{clip-path:url(#XMLID_415_);fill:#FFEC00;}
	.st247{clip-path:url(#XMLID_415_);fill:#FFED00;}
	.st248{clip-path:url(#XMLID_415_);fill:#FFEE00;}
	.st249{clip-path:url(#XMLID_415_);fill:#FFEF00;}
	.st250{clip-path:url(#XMLID_415_);fill:#FFF100;}
	.st251{fill:#FFFFFF;}
</style>
<g id="XMLID_62_">
	<g id="XMLID_671_">
		<g id="XMLID_701_">
			<path id="XMLID_713_" class="st0" d="M84.1,26.4h-7.6l-0.8,1.8h-6l9.7-21.6h1.8l9.7,21.6h-6L84.1,26.4z M80.3,17L78.5,22h3.7
				L80.3,17z"/>
			<path id="XMLID_711_" class="st0" d="M114.7,6.6v21.6h-5.5v-8.9l-4.4,5.1H103l-4.4-5.1v8.9h-5.5V6.6h1.8l9,11l9-11H114.7z"/>
			<path id="XMLID_709_" class="st1" d="M129.3,6.6c4.2,0,7.8,2.1,9.7,5.7l-4.2,2.9c-1.4-2.3-3.2-3.5-5.5-3.5c-3.4,0-5.8,2.4-5.8,6
				c0,1.8,0.5,3.2,1.6,4.3c1.1,1.1,2.5,1.6,4.2,1.6c2.3,0,4.2-1.2,5.5-3.5l4.2,2.9c-1.9,3.6-5.5,5.7-9.8,5.7
				c-6.2,0.1-11.6-4.9-11.5-11C117.7,11.5,123,6.4,129.3,6.6z"/>
			<path id="XMLID_707_" class="st1" d="M141.9,4h5.5v24.1h-5.5V4z"/>
			<path id="XMLID_705_" class="st1" d="M150.9,12.1h5.5v9c0,1.4,1,2.3,2.3,2.3c1.3,0,2.3-1,2.3-2.3v-9h5.5v8.6
				c0,4.7-3.3,7.9-7.9,7.9c-4.5,0-7.9-3.2-7.9-7.9V12.1z"/>
			<path id="XMLID_702_" class="st1" d="M179.7,28.6c-2.1,0-3.6-0.7-4.6-2.1v1.7h-5.1V4h5.5v9.1c1.1-1,2.4-1.5,4.1-1.5
				c4.4,0,7.7,3.6,7.7,8.5C187.5,25.1,184.3,28.6,179.7,28.6z M178.7,16.7c-1.7,0-3.1,1.3-3.1,3.4s1.4,3.4,3.1,3.4
				c1.8,0,3.2-1.3,3.2-3.4C181.8,18,180.4,16.7,178.7,16.7z"/>
		</g>
		<g id="XMLID_672_">
			<path id="XMLID_698_" class="st0" d="M69.9,32.5H73c1.7,0,3,1.1,3,2.7c0,1.6-1.3,2.7-3,2.7h-1v2.4h-2V32.5z M73,36.1
				c0.6,0,0.9-0.4,0.9-0.9c0-0.6-0.4-0.9-0.9-0.9h-1v1.8H73z"/>
			<path id="XMLID_695_" class="st0" d="M82.7,32.4c2.3,0,4.3,1.8,4.2,4.1c0,2.3-2,4.1-4.2,4.1c-2.3,0-4.3-1.8-4.2-4.1
				C78.4,34.2,80.4,32.3,82.7,32.4z M82.7,34.3c-1.3,0-2.1,0.9-2.1,2.2c0,0.7,0.2,1.2,0.6,1.6c0.4,0.4,0.9,0.6,1.5,0.6
				c1.2,0,2.1-0.9,2.1-2.2C84.8,35.1,83.9,34.3,82.7,34.3z"/>
			<path id="XMLID_693_" class="st0" d="M97.8,32.4v8h-2v-3.3L94.2,39h-0.7l-1.6-1.9v3.3h-2v-8h0.7l3.3,4.1l3.3-4.1H97.8z"/>
			<path id="XMLID_690_" class="st0" d="M105,32.4c2.3,0,4.3,1.8,4.2,4.1c0,2.3-2,4.1-4.2,4.1c-2.3,0-4.3-1.8-4.2-4.1
				C100.7,34.2,102.7,32.3,105,32.4z M105,34.3c-1.3,0-2.1,0.9-2.1,2.2c0,0.7,0.2,1.2,0.6,1.6c0.4,0.4,0.9,0.6,1.5,0.6
				c1.2,0,2.1-0.9,2.1-2.2C107.1,35.1,106.2,34.3,105,34.3z"/>
			<path id="XMLID_687_" class="st0" d="M116,32.4c1.6,0,2.9,0.8,3.6,2.1l-1.6,1.1c-0.5-0.9-1.2-1.3-2-1.3c-1.2,0-2.1,0.9-2.1,2.2
				c0,0.7,0.2,1.2,0.6,1.6c0.4,0.4,0.9,0.6,1.5,0.6c0.9,0,1.5-0.4,2-1.3l1.6,1.1c-0.7,1.3-2,2.1-3.6,2.1c-2.3,0-4.3-1.8-4.2-4.1
				C111.7,34.2,113.7,32.3,116,32.4z M115.9,29.6h2.5v0.4l-1.7,1.8h-1.5L115.9,29.6z"/>
			<path id="XMLID_685_" class="st0" d="M134.5,32.5v8h-0.7l-4.2-4.1v4h-2v-8h0.7l4.2,4.1v-3.9H134.5z"/>
			<path id="XMLID_682_" class="st0" d="M142.4,39.7h-2.8l-0.3,0.7h-2.2l3.6-8h0.7l3.6,8h-2.2L142.4,39.7z M141,36.2l-0.7,1.8h1.4
				L141,36.2z"/>
			<path id="XMLID_679_" class="st0" d="M152,32.5h3.1c1.7,0,3,1.1,3,2.7c0,1.6-1.3,2.7-3,2.7h-1v2.4h-2V32.5z M155,36.1
				c0.6,0,0.9-0.4,0.9-0.9c0-0.6-0.4-0.9-0.9-0.9h-1v1.8H155z"/>
			<path id="XMLID_677_" class="st0" d="M160.9,32.5h2v4.7c0,0.9,0.6,1.4,1.4,1.4c0.8,0,1.4-0.5,1.4-1.4v-4.7h2V37
				c0,2.1-1.5,3.5-3.5,3.5c-2,0-3.5-1.4-3.5-3.5V32.5z"/>
			<path id="XMLID_675_" class="st0" d="M172.8,34.4h-2.3v-1.8h6.7v1.8h-2.3v6h-2V34.4z"/>
			<path id="XMLID_673_" class="st0" d="M179.8,32.5h2v4.7c0,0.9,0.6,1.4,1.4,1.4c0.8,0,1.4-0.5,1.4-1.4v-4.7h2V37
				c0,2.1-1.5,3.5-3.5,3.5c-2,0-3.5-1.4-3.5-3.5V32.5z"/>
		</g>
	</g>
	<g id="XMLID_66_">
		<g id="XMLID_662_">
			<g id="XMLID_667_">
				<polygon id="XMLID_337_" class="st2" points="52.2,14.3 52.2,20.6 61.2,20.6 63.4,14.3 				"/>
				<polygon id="XMLID_336_" class="st2" points="52.2,22.5 52.2,28.8 58.2,28.8 60.4,22.5 				"/>
				<polygon id="XMLID_333_" class="st2" points="52.2,6.1 52.2,12.4 65,12.4 67.3,6.1 				"/>
			</g>
			<g id="XMLID_663_">
				<polygon id="XMLID_332_" class="st2" points="15.1,14.3 15.1,20.6 6.1,20.6 3.9,14.3 				"/>
				<polygon id="XMLID_331_" class="st2" points="15.1,22.5 15.1,28.8 9.1,28.8 6.9,22.5 				"/>
				<polygon id="XMLID_330_" class="st2" points="15.1,6.1 15.1,12.4 2.2,12.4 0,6.1 				"/>
			</g>
		</g>
		<g id="XMLID_67_">
			<g id="XMLID_329_">
				<linearGradient id="XMLID_413_" gradientUnits="userSpaceOnUse" x1="33.6365" y1="-3.4315" x2="33.6365" y2="58.38">
					<stop  offset="0" style="stop-color:#313132"/>
					<stop  offset="0.1662" style="stop-color:#232425"/>
					<stop  offset="1" style="stop-color:#000000"/>
				</linearGradient>
				<path id="XMLID_397_" class="st3" d="M51,4.8L51,4.8l-0.1-0.1c-1-0.6-2.9-1.5-5.7-2.2c-4.6-1.2-10.4-1.3-11.5-1.3h-0.2
					c-1.1,0-7,0.1-11.5,1.3c-2.7,0.7-4.6,1.6-5.6,2.2v20.4c0,2.6,0.1,4.7,0.2,5.6c0.4,3.5,5.6,9.5,10.1,12.3c4.3,2.7,6.8,3.9,7,4v0
					c0,0,0,0,0,0c0,0,0,0,0,0v0c0.2-0.1,2.8-1.3,7-4c4.5-2.8,9.7-8.8,10.1-12.3C51.1,27.1,51,4.8,51,4.8z"/>
			</g>
			<g id="XMLID_328_">
				<linearGradient id="XMLID_414_" gradientUnits="userSpaceOnUse" x1="33.6364" y1="-1.8896" x2="33.6364" y2="55.8226">
					<stop  offset="0" style="stop-color:#313132"/>
					<stop  offset="0.1662" style="stop-color:#232425"/>
					<stop  offset="1" style="stop-color:#000000"/>
				</linearGradient>
				<path id="XMLID_396_" class="st4" d="M33.6,45.2c-0.6-0.3-3-1.4-6.6-3.7c-4.2-2.6-9.2-8.1-9.6-11.4c-0.1-0.6-0.1-1.9-0.1-3.7
					V5.6c1-0.5,2.7-1.3,5.1-1.9c4.4-1.2,10-1.2,11.1-1.2h0.2c1.1,0,6.7,0.1,11.1,1.2c2.5,0.7,4.2,1.4,5.2,2v0.3H50
					C50,8.7,50.1,27,49.8,30c-0.3,3.3-5.4,8.9-9.6,11.4C36.5,43.7,34.2,44.9,33.6,45.2z"/>
				<path id="XMLID_390_" class="st5" d="M33.7,2.8c1.1,0,6.6,0.1,11,1.2c2.3,0.6,3.9,1.3,4.9,1.8v0.4h0.1c0,3.8,0.1,20.8-0.2,23.7
					c-0.3,2.9-4.9,8.4-9.4,11.2c-3.4,2.1-5.6,3.2-6.4,3.6c-0.8-0.4-3-1.5-6.4-3.6c-4.5-2.8-9.1-8.3-9.4-11.2
					c-0.1-0.6-0.1-1.8-0.1-3.7V5.8c1-0.5,2.6-1.2,4.8-1.8c4.3-1.2,9.9-1.2,11-1.2H33.7 M33.7,2.1h-0.2c-1.1,0-6.8,0.1-11.2,1.2
					c-2.6,0.7-4.4,1.5-5.4,2.1v21c0,1.7,0.1,3.1,0.2,3.8c0.3,3.4,5.4,9,9.8,11.7c4.1,2.6,6.6,3.7,6.8,3.8v0c0,0,0,0,0,0c0,0,0,0,0,0
					v0c0.2-0.1,2.7-1.2,6.8-3.8c4.3-2.7,9.4-8.4,9.8-11.7c0.3-3.4,0.2-24.6,0.2-24.6h-0.1V5.4c-1-0.6-2.8-1.4-5.5-2.1
					C40.4,2.1,34.8,2.1,33.7,2.1L33.7,2.1z"/>
			</g>
			<g id="XMLID_395_" class="st6">
				<defs>
					<path id="XMLID_70_" class="st6" d="M17.3,5.4c0,20.9,0.7,30.9,16.3,35.6C49.2,36.3,49.9,26.4,50,5.5
						c-4.6-2.4-10.4-3.7-16.5-3.7C27.5,1.8,21.9,3.1,17.3,5.4"/>
				</defs>
				<clipPath id="XMLID_415_">
					<use xlink:href="#XMLID_70_"  style="overflow:visible;"/>
				</clipPath>
				<rect id="XMLID_327_" x="17.3" y="1.8" class="st7" width="32.7" height="39.2"/>
				<path id="XMLID_326_" class="st7" d="M33.2,15.4c-5.1,0.4-10-0.4-14.5-2.1c-0.6-0.2-1.1-0.4-1.7-0.7h0.2V1.7h33v7.6h0.4
					c-1,0.7-2,1.3-3.1,1.9C43.1,13.5,38.3,15,33.2,15.4"/>
				<path id="XMLID_325_" class="st8" d="M33.2,15.3c-5.1,0.4-10-0.4-14.5-2.1c-0.6-0.2-1.1-0.4-1.7-0.7h0.1V1.7h33v7.5h0.3
					c-1,0.7-2,1.3-3.1,1.9C43.1,13.4,38.3,14.9,33.2,15.3"/>
				<path id="XMLID_324_" class="st9" d="M33.2,15.2c-5.1,0.4-10-0.4-14.5-2.1c-0.6-0.2-1.1-0.4-1.7-0.7h0.1V1.7h33v7.5h0.3
					c-1,0.7-2,1.3-3.1,1.9C43,13.4,38.3,14.8,33.2,15.2"/>
				<path id="XMLID_323_" class="st10" d="M33.2,15.1c-5.1,0.4-9.9-0.4-14.4-2.1c-0.6-0.2-1.1-0.4-1.7-0.7h0.1V1.7h33v7.4h0.2
					c-1,0.7-2,1.3-3.1,1.9C43,13.3,38.3,14.7,33.2,15.1"/>
				<path id="XMLID_322_" class="st11" d="M33.2,15c-5,0.4-9.9-0.4-14.4-2.1c-0.6-0.2-1.1-0.4-1.7-0.7h0V1.7h33V9h0.2
					c-1,0.7-2,1.3-3.1,1.9C43,13.2,38.2,14.6,33.2,15"/>
				<path id="XMLID_321_" class="st12" d="M33.2,14.9c-5,0.4-9.9-0.4-14.4-2.1c-0.6-0.2-1.1-0.4-1.7-0.7h0V1.7h33v7.3h0.1
					c-1,0.7-2,1.3-3.1,1.9C42.9,13.1,38.2,14.6,33.2,14.9"/>
				<path id="XMLID_320_" class="st13" d="M33.2,14.8c-5,0.4-9.9-0.4-14.4-2c-0.6-0.2-1.1-0.4-1.7-0.7c-0.3-0.1-0.5-0.2-0.8-0.4h0.8
					V1.7h33v7.2h0.1c-1,0.7-2,1.3-3.1,1.9C42.9,13,38.2,14.5,33.2,14.8"/>
				<path id="XMLID_319_" class="st14" d="M33.2,14.8c-5,0.4-9.9-0.4-14.3-2c-0.6-0.2-1.1-0.4-1.7-0.7c-0.3-0.1-0.5-0.2-0.8-0.4h0.8
					v-10h33v7.1h0.1c-1,0.7-2,1.3-3.1,1.9C42.9,13,38.2,14.4,33.2,14.8"/>
				<path id="XMLID_318_" class="st14" d="M33.2,14.7c-5,0.4-9.8-0.4-14.3-2c-0.6-0.2-1.1-0.4-1.7-0.7c-0.3-0.1-0.5-0.2-0.8-0.4h0.7
					V1.7h33v7h0c-1,0.7-2,1.3-3.1,1.9C42.9,12.9,38.2,14.3,33.2,14.7"/>
				<path id="XMLID_317_" class="st15" d="M33.2,14.6c-5,0.4-9.8-0.4-14.3-2c-0.6-0.2-1.1-0.4-1.6-0.7c-0.3-0.1-0.5-0.2-0.8-0.4h0.7
					V1.7h33v6.5h0.7c-0.2,0.2-0.5,0.3-0.7,0.5c-1,0.7-2,1.3-3.1,1.9C42.8,12.8,38.2,14.2,33.2,14.6"/>
				<path id="XMLID_316_" class="st16" d="M33.2,14.5c-5,0.4-9.8-0.4-14.2-2c-0.6-0.2-1.1-0.4-1.6-0.7c-0.3-0.1-0.5-0.2-0.8-0.4h0.7
					V1.7h33v6.4h0.7c-0.2,0.2-0.5,0.3-0.7,0.5c-1,0.7-2,1.3-3,1.9C42.8,12.7,38.1,14.1,33.2,14.5"/>
				<path id="XMLID_315_" class="st17" d="M33.2,14.4c-5,0.4-9.8-0.4-14.2-2c-0.6-0.2-1.1-0.4-1.6-0.7c-0.3-0.1-0.5-0.2-0.8-0.4h0.6
					V1.7h33V8h0.6c-0.2,0.2-0.5,0.3-0.7,0.5c-1,0.7-2,1.3-3,1.9C42.8,12.6,38.1,14.1,33.2,14.4"/>
				<path id="XMLID_314_" class="st18" d="M33.2,14.3c-5,0.4-9.7-0.4-14.2-2c-0.6-0.2-1.1-0.4-1.6-0.7c-0.3-0.1-0.5-0.2-0.8-0.4h0.6
					V1.7h33v6.2h0.6c-0.2,0.2-0.5,0.3-0.7,0.5c-1,0.7-2,1.3-3,1.9C42.8,12.5,38.1,14,33.2,14.3"/>
				<path id="XMLID_313_" class="st19" d="M33.1,14.2c-4.9,0.4-9.7-0.4-14.1-2c-0.6-0.2-1.1-0.4-1.6-0.7c-0.3-0.1-0.5-0.2-0.8-0.4
					h0.6V1.7h33v6.2h0.5c-0.2,0.2-0.5,0.3-0.7,0.5c-1,0.7-2,1.3-3,1.9C42.7,12.5,38.1,13.9,33.1,14.2"/>
				<path id="XMLID_312_" class="st20" d="M33.1,14.2c-4.9,0.4-9.7-0.4-14.1-2c-0.5-0.2-1.1-0.4-1.6-0.7c-0.3-0.1-0.5-0.2-0.8-0.4
					h0.5V1.7h33v6.1h0.5c-0.2,0.2-0.5,0.3-0.7,0.5c-1,0.7-2,1.3-3,1.8C42.7,12.4,38.1,13.8,33.1,14.2"/>
				<path id="XMLID_311_" class="st21" d="M33.1,14.1c-4.9,0.4-9.7-0.4-14.1-2c-0.5-0.2-1.1-0.4-1.6-0.7c-0.3-0.1-0.5-0.2-0.8-0.4
					h0.5V1.7h33v6h0.4c-0.2,0.2-0.5,0.3-0.7,0.5c-1,0.7-2,1.3-3,1.8C42.7,12.3,38.1,13.7,33.1,14.1"/>
				<path id="XMLID_310_" class="st22" d="M33.1,14c-4.9,0.4-9.7-0.4-14-2c-0.5-0.2-1.1-0.4-1.6-0.7c-0.3-0.1-0.5-0.2-0.8-0.4h0.5
					V1.7h33v6h0.4C50.3,7.8,50,8,49.8,8.1c-1,0.7-2,1.3-3,1.8C42.7,12.2,38,13.6,33.1,14"/>
				<path id="XMLID_309_" class="st23" d="M33.1,13.9c-4.9,0.4-9.6-0.4-14-2c-0.5-0.2-1.1-0.4-1.6-0.7c-0.3-0.1-0.5-0.2-0.8-0.4h0.4
					V1.7h33v5.9h0.4c-0.2,0.2-0.5,0.3-0.7,0.5c-1,0.7-2,1.3-3,1.8C42.6,12.1,38,13.5,33.1,13.9"/>
				<path id="XMLID_308_" class="st24" d="M33.1,13.8c-4.9,0.4-9.6-0.4-14-2c-0.5-0.2-1.1-0.4-1.6-0.6c-0.3-0.1-0.5-0.2-0.8-0.4h0.4
					V1.7h33v5.8h0.3C50.2,7.7,50,7.8,49.7,8c-1,0.7-2,1.3-3,1.8C42.6,12.1,38,13.5,33.1,13.8"/>
				<path id="XMLID_307_" class="st25" d="M33.1,13.7c-4.9,0.4-9.6-0.4-13.9-2c-0.5-0.2-1.1-0.4-1.6-0.6c-0.3-0.1-0.5-0.2-0.8-0.4
					h0.4V1.7h33v5.2h1c-0.5,0.4-0.9,0.7-1.4,1c-1,0.7-2,1.3-3,1.8C42.6,12,38,13.4,33.1,13.7"/>
				<path id="XMLID_306_" class="st26" d="M33.1,13.6c-4.9,0.4-9.6-0.4-13.9-2c-0.5-0.2-1.1-0.4-1.6-0.6c-0.3-0.1-0.5-0.2-0.8-0.4
					h0.4v-9h33v5.2H51c-0.5,0.4-0.9,0.7-1.4,1c-1,0.7-2,1.3-3,1.8C42.5,11.9,38,13.3,33.1,13.6"/>
				<path id="XMLID_305_" class="st27" d="M33.1,13.6c-4.9,0.4-9.6-0.4-13.9-2c-0.5-0.2-1.1-0.4-1.6-0.6c-0.3-0.1-0.5-0.2-0.8-0.4
					h0.3V1.7h33v5.1H51c-0.5,0.4-0.9,0.7-1.4,1c-1,0.7-2,1.3-3,1.8C42.5,11.8,38,13.2,33.1,13.6"/>
				<path id="XMLID_304_" class="st28" d="M33.1,13.5c-4.8,0.4-9.5-0.4-13.9-2c-0.5-0.2-1.1-0.4-1.6-0.6c-0.3-0.1-0.5-0.2-0.8-0.4
					h0.3V1.7h33v5H51c-0.5,0.4-0.9,0.7-1.4,1c-1,0.7-1.9,1.3-3,1.8C42.5,11.7,37.9,13.1,33.1,13.5"/>
				<path id="XMLID_303_" class="st29" d="M33.1,13.4c-4.8,0.4-9.5-0.4-13.8-2c-0.5-0.2-1.1-0.4-1.6-0.6c-0.3-0.1-0.5-0.2-0.8-0.4
					h0.3V1.7h33v4.9h0.8c-0.5,0.3-0.9,0.7-1.4,1c-1,0.7-1.9,1.3-3,1.8C42.5,11.6,37.9,13,33.1,13.4"/>
				<path id="XMLID_302_" class="st30" d="M33.1,13.3c-4.8,0.4-9.5-0.4-13.8-2c-1.1-0.4-2.1-0.9-3.2-1.4h1V1.7h33v4.9h0.7
					c-0.5,0.3-0.9,0.7-1.4,1c-1,0.7-1.9,1.3-3,1.8C42.4,11.6,37.9,13,33.1,13.3"/>
				<path id="XMLID_301_" class="st31" d="M33.1,13.2c-4.8,0.4-9.5-0.4-13.8-2c-1.1-0.4-2.1-0.9-3.1-1.4h1V1.7h33v4.8h0.7
					c-0.5,0.3-0.9,0.7-1.4,1c-1,0.6-1.9,1.3-3,1.8C42.4,11.5,37.9,12.9,33.1,13.2"/>
				<path id="XMLID_300_" class="st32" d="M33.1,13.1c-4.8,0.4-9.4-0.4-13.7-2c-1.1-0.4-2.1-0.9-3.1-1.4h0.9V1.7h33v4.7h0.6
					c-0.5,0.3-0.9,0.7-1.4,1c-0.9,0.6-1.9,1.2-2.9,1.8C42.4,11.4,37.9,12.8,33.1,13.1"/>
				<path id="XMLID_299_" class="st33" d="M33.1,13.1c-4.8,0.3-9.4-0.4-13.7-2c-1.1-0.4-2.1-0.8-3.1-1.4h0.9V1.7h33v4.7h0.6
					c-0.5,0.3-0.9,0.7-1.4,1c-0.9,0.6-1.9,1.2-2.9,1.8C42.4,11.3,37.9,12.7,33.1,13.1"/>
				<path id="XMLID_298_" class="st34" d="M33.1,13c-4.8,0.3-9.4-0.4-13.7-1.9c-1.1-0.4-2.1-0.8-3.1-1.3h0.9v-8h33v4.6h0.6
					c-0.5,0.3-0.9,0.7-1.4,1c-0.9,0.6-1.9,1.2-2.9,1.8C42.3,11.2,37.8,12.6,33.1,13"/>
				<path id="XMLID_297_" class="st35" d="M33.1,12.9c-4.8,0.3-9.4-0.4-13.6-1.9c-1.1-0.4-2.1-0.8-3.1-1.3h0.8V1.7h33v4.5h0.5
					c-0.5,0.3-0.9,0.7-1.4,1c-0.9,0.6-1.9,1.2-2.9,1.8C42.3,11.2,37.8,12.5,33.1,12.9"/>
				<path id="XMLID_296_" class="st36" d="M33.1,12.8c-4.8,0.3-9.4-0.4-13.6-1.9c-1.1-0.4-2.1-0.8-3.1-1.3h0.8V1.7h33v4.5h0.5
					c-0.5,0.3-0.9,0.7-1.4,1c-0.9,0.6-1.9,1.2-2.9,1.8C42.3,11.1,37.8,12.4,33.1,12.8"/>
				<path id="XMLID_295_" class="st37" d="M33,12.7c-4.7,0.3-9.3-0.4-13.6-1.9c-1.1-0.4-2.1-0.8-3.1-1.3h0.8V1.7h33v4.4h0.4
					c-0.5,0.3-0.9,0.7-1.4,1c-0.9,0.6-1.9,1.2-2.9,1.8C42.3,11,37.8,12.4,33,12.7"/>
				<path id="XMLID_294_" class="st38" d="M33,12.6c-4.7,0.3-9.3-0.4-13.5-1.9c-1.1-0.4-2.1-0.8-3.1-1.3h0.7V1.7h33V6h0.4
					c-0.5,0.3-0.9,0.7-1.4,1c-0.9,0.6-1.9,1.2-2.9,1.8C42.2,10.9,37.8,12.3,33,12.6"/>
				<path id="XMLID_293_" class="st39" d="M33,12.5c-4.7,0.3-9.3-0.4-13.5-1.9c-1.1-0.4-2.1-0.8-3.1-1.3h0.7V1.7h33v4.2h0.3
					c-0.5,0.3-0.9,0.7-1.4,1c-0.9,0.6-1.9,1.2-2.9,1.8C42.2,10.8,37.8,12.2,33,12.5"/>
				<path id="XMLID_292_" class="st40" d="M33,12.5c-4.7,0.3-9.3-0.4-13.5-1.9c-1.1-0.4-2.1-0.8-3.1-1.3h0.7V1.7h33v4.2h0.3
					c-0.5,0.3-0.9,0.7-1.4,1c-0.9,0.6-1.9,1.2-2.9,1.8C42.2,10.8,37.7,12.1,33,12.5"/>
				<path id="XMLID_291_" class="st41" d="M33,12.4c-4.7,0.3-9.3-0.4-13.4-1.9c-1-0.4-2.1-0.8-3.1-1.3h0.6V1.7h33v4.1h0.2
					c-0.5,0.3-0.9,0.7-1.4,1c-0.9,0.6-1.9,1.2-2.9,1.8C42.2,10.7,37.7,12,33,12.4"/>
				<path id="XMLID_290_" class="st42" d="M33,12.3c-4.7,0.3-9.2-0.4-13.4-1.9c-1-0.4-2.1-0.8-3.1-1.3h0.6V1.7h33v4h0.2
					c-0.4,0.3-0.9,0.7-1.4,1c-0.9,0.6-1.9,1.2-2.9,1.8C42.1,10.6,37.7,11.9,33,12.3"/>
				<path id="XMLID_289_" class="st43" d="M33,12.2c-4.7,0.3-9.2-0.4-13.4-1.9c-1-0.4-2.1-0.8-3.1-1.3h0.6V1.7h33v4h0.1
					c-0.4,0.3-0.9,0.7-1.4,1C48,7.2,47,7.8,46,8.4C42.1,10.5,37.7,11.9,33,12.2"/>
				<path id="XMLID_288_" class="st44" d="M33,12.1c-4.7,0.3-9.2-0.4-13.4-1.9c-1-0.4-2.1-0.8-3.1-1.3h0.5V1.7h33v3.9h0.1
					c-0.4,0.3-0.9,0.7-1.4,1C47.9,7.2,47,7.8,46,8.3C42.1,10.4,37.7,11.8,33,12.1"/>
				<path id="XMLID_287_" class="st45" d="M33,12c-4.7,0.3-9.2-0.4-13.3-1.9c-1-0.4-2.1-0.8-3-1.3h0.5V1.7h33v3.8h0.1
					c-0.4,0.3-0.9,0.7-1.4,1c-0.9,0.6-1.9,1.2-2.9,1.7C42,10.3,37.7,11.7,33,12"/>
				<path id="XMLID_286_" class="st46" d="M33,11.9c-4.7,0.3-9.1-0.4-13.3-1.9c-1-0.4-2.1-0.8-3-1.3h0.5V1.7h33v3.8h0
					c-0.4,0.3-0.9,0.7-1.4,1c-0.9,0.6-1.9,1.2-2.8,1.7C42,10.3,37.7,11.6,33,11.9"/>
				<path id="XMLID_285_" class="st47" d="M33,11.9c-4.6,0.3-9.1-0.4-13.3-1.9c-1-0.4-2-0.8-3-1.3h0.4v-7h33v3.2h0.6
					c-0.2,0.2-0.4,0.3-0.7,0.5c-0.4,0.3-0.9,0.7-1.4,1c-0.9,0.6-1.9,1.2-2.8,1.7C42,10.2,37.6,11.5,33,11.9"/>
				<path id="XMLID_284_" class="st48" d="M33,11.8c-4.6,0.3-9.1-0.4-13.2-1.9c-1-0.4-2-0.8-3-1.3h0.4V1.7h33v3.1h0.6
					c-0.2,0.2-0.4,0.3-0.7,0.5c-0.4,0.3-0.9,0.7-1.3,1c-0.9,0.6-1.9,1.2-2.8,1.7C42,10.1,37.6,11.4,33,11.8"/>
				<path id="XMLID_283_" class="st49" d="M33,11.7c-4.6,0.3-9.1-0.4-13.2-1.9c-1-0.4-2-0.8-3-1.3h0.4V1.7h33v3h0.5
					C50.4,4.9,50.2,5,50,5.2c-0.4,0.3-0.9,0.7-1.3,1c-0.9,0.6-1.9,1.2-2.8,1.7C41.9,10,37.6,11.4,33,11.7"/>
				<path id="XMLID_282_" class="st50" d="M33,11.6c-4.6,0.3-9.1-0.3-13.2-1.9c-1-0.4-2-0.8-3-1.3h0.3V1.7h33v3h0.5
					C50.4,4.8,50.2,5,50,5.1c-0.4,0.3-0.9,0.7-1.3,1c-0.9,0.6-1.9,1.2-2.8,1.7C41.9,9.9,37.6,11.3,33,11.6"/>
				<path id="XMLID_281_" class="st51" d="M33,11.5c-4.6,0.3-9-0.3-13.1-1.9c-1-0.4-2-0.8-3-1.3h0.3V1.7h33v2.9h0.4
					c-0.2,0.2-0.4,0.3-0.7,0.5c-0.4,0.3-0.9,0.7-1.3,1c-0.9,0.6-1.8,1.2-2.8,1.7C41.9,9.9,37.6,11.2,33,11.5"/>
				<path id="XMLID_280_" class="st52" d="M33,11.4c-4.6,0.3-9-0.3-13.1-1.9c-1-0.4-2-0.8-3-1.3h0.3V1.7h33v2.8h0.4
					c-0.2,0.2-0.4,0.3-0.7,0.5c-0.4,0.3-0.9,0.7-1.3,1c-0.9,0.6-1.8,1.2-2.8,1.7C41.9,9.8,37.6,11.1,33,11.4"/>
				<path id="XMLID_279_" class="st53" d="M33,11.3c-4.6,0.3-9-0.3-13.1-1.9c-1-0.4-2-0.8-3-1.3h0.2V1.7h33v2.2h1
					c-1.7,1.4-3.5,2.7-5.4,3.7C41.8,9.7,37.5,11,33,11.3"/>
				<path id="XMLID_278_" class="st54" d="M33,11.3c-4.6,0.3-9-0.3-13-1.9c-1-0.4-2-0.8-3-1.3h0.2V1.7h33v2.2h0.9
					c-1.7,1.4-3.5,2.6-5.4,3.7C41.8,9.6,37.5,10.9,33,11.3"/>
				<path id="XMLID_277_" class="st55" d="M33,11.2c-4.6,0.3-9-0.3-13-1.9c-1-0.4-2-0.8-3-1.3h0.2V1.7h33v2.1H51
					c-1.7,1.4-3.5,2.6-5.4,3.7C41.8,9.5,37.5,10.8,33,11.2"/>
				<path id="XMLID_276_" class="st56" d="M32.9,11.1c-4.5,0.3-8.9-0.3-13-1.9c-1-0.4-2-0.8-3-1.3h0.1V1.7h33v2H51
					c-1.7,1.4-3.5,2.6-5.4,3.7C41.8,9.5,37.5,10.8,32.9,11.1"/>
				<path id="XMLID_275_" class="st57" d="M32.9,11C28.4,11.3,24,10.7,20,9.2c-1-0.4-2-0.8-3-1.3h0.1V1.7h33v2h0.8
					c-1.7,1.4-3.5,2.6-5.4,3.7C41.7,9.4,37.5,10.7,32.9,11"/>
				<path id="XMLID_274_" class="st58" d="M32.9,10.9c-4.5,0.3-8.9-0.3-12.9-1.8c-1-0.4-2-0.8-3-1.3h0.1V1.7h33v1.9h0.7
					c-1.7,1.4-3.5,2.6-5.4,3.7C41.7,9.3,37.5,10.6,32.9,10.9"/>
				<path id="XMLID_273_" class="st59" d="M32.9,10.8C28.4,11.2,24.1,10.5,20,9c-1-0.4-2-0.8-2.9-1.3h0V1.7h33v1.8h0.7
					c-1.7,1.4-3.4,2.6-5.3,3.6C41.7,9.2,37.4,10.5,32.9,10.8"/>
				<path id="XMLID_272_" class="st60" d="M32.9,10.8c-4.5,0.3-8.8-0.3-12.9-1.8c-1-0.4-2-0.8-2.9-1.3h0v-6h33v1.8h0.6
					c-1.7,1.4-3.4,2.6-5.3,3.6C41.6,9.1,37.4,10.4,32.9,10.8"/>
				<path id="XMLID_271_" class="st61" d="M32.9,10.7c-4.5,0.3-8.8-0.3-12.8-1.8c-1-0.4-2-0.8-2.9-1.3c-0.2-0.1-0.5-0.2-0.7-0.4h0.7
					V1.7h33v1.7h0.6C49.1,4.8,47.3,6,45.4,7C41.6,9,37.4,10.3,32.9,10.7"/>
				<path id="XMLID_270_" class="st62" d="M32.9,10.6c-4.5,0.3-8.8-0.3-12.8-1.8c-1-0.4-2-0.8-2.9-1.3c-0.2-0.1-0.5-0.2-0.7-0.4h0.7
					V1.7h33v1.6h0.5c-1.6,1.4-3.4,2.6-5.3,3.6C41.6,9,37.4,10.3,32.9,10.6"/>
				<path id="XMLID_269_" class="st63" d="M32.9,10.5c-4.5,0.3-8.8-0.3-12.8-1.8c-1-0.4-2-0.8-2.9-1.3c-0.2-0.1-0.5-0.2-0.7-0.4h0.6
					V1.7h33v1.6h0.5c-1.6,1.4-3.4,2.6-5.3,3.6C41.6,8.9,37.4,10.2,32.9,10.5"/>
				<path id="XMLID_268_" class="st64" d="M32.9,10.4c-4.5,0.3-8.8-0.3-12.7-1.8c-1-0.4-2-0.8-2.9-1.3C17,7.2,16.8,7.1,16.6,7h0.6
					V1.7h33v1.5h0.4c-1.6,1.4-3.4,2.6-5.3,3.6C41.5,8.8,37.4,10.1,32.9,10.4"/>
				<path id="XMLID_267_" class="st65" d="M32.9,10.3c-4.4,0.3-8.7-0.3-12.7-1.8c-1-0.4-2-0.8-2.9-1.3c-0.2-0.1-0.5-0.2-0.7-0.4h0.6
					V1.7h33v1.4h0.4c-1.6,1.4-3.4,2.6-5.3,3.6C41.5,8.7,37.3,10,32.9,10.3"/>
				<path id="XMLID_266_" class="st66" d="M32.9,10.2c-4.4,0.3-8.7-0.3-12.7-1.8c-1-0.4-2-0.8-2.9-1.3c-0.2-0.1-0.5-0.2-0.7-0.4h0.5
					V1.7h33V3h0.3c-1.6,1.4-3.4,2.6-5.3,3.6C41.5,8.6,37.3,9.9,32.9,10.2"/>
				<path id="XMLID_265_" class="st67" d="M32.9,10.2c-4.4,0.3-8.7-0.3-12.6-1.8c-1-0.4-1.9-0.8-2.9-1.2c-0.2-0.1-0.5-0.2-0.7-0.4
					h0.5V1.7h33V3h0.3c-1.6,1.4-3.4,2.6-5.2,3.6C41.5,8.6,37.3,9.8,32.9,10.2"/>
				<path id="XMLID_264_" class="st68" d="M32.9,10.1c-4.4,0.3-8.7-0.3-12.6-1.8c-1-0.4-1.9-0.8-2.9-1.2c-0.2-0.1-0.5-0.2-0.7-0.4
					h0.4v-5h33v1.2h0.2c-1.6,1.4-3.4,2.6-5.2,3.6C41.4,8.5,37.3,9.7,32.9,10.1"/>
				<path id="XMLID_263_" class="st69" d="M32.9,10c-4.4,0.3-8.7-0.3-12.6-1.8c-1-0.4-1.9-0.8-2.9-1.2c-0.2-0.1-0.5-0.2-0.7-0.4h0.4
					V1.7h33v1.2h0.2c-1.6,1.4-3.4,2.5-5.2,3.6C41.4,8.4,37.3,9.7,32.9,10"/>
				<path id="XMLID_262_" class="st70" d="M32.9,9.9c-4.4,0.3-8.6-0.3-12.5-1.8c-1-0.4-1.9-0.8-2.9-1.2c-0.2-0.1-0.5-0.2-0.7-0.4
					h0.4V1.7h33v1.1h0.1c-1.6,1.4-3.4,2.5-5.2,3.5C41.4,8.3,37.3,9.6,32.9,9.9"/>
				<path id="XMLID_261_" class="st71" d="M32.9,9.8c-4.4,0.3-8.6-0.3-12.5-1.8c-1-0.4-1.9-0.8-2.9-1.2c-0.2-0.1-0.5-0.2-0.7-0.4
					h0.3V1.7h33v1h0.1C48.6,4,46.9,5.2,45,6.2C41.4,8.2,37.2,9.5,32.9,9.8"/>
				<path id="XMLID_260_" class="st72" d="M32.9,9.7c-4.4,0.3-8.6-0.3-12.5-1.8c-1-0.4-1.9-0.8-2.9-1.2c-0.5-0.2-0.9-0.5-1.4-0.7h1
					V1.7h33v1h0.1C48.6,4,46.8,5.2,45,6.2C41.3,8.2,37.2,9.4,32.9,9.7"/>
				<path id="XMLID_259_" class="st73" d="M32.9,9.6c-4.4,0.3-8.6-0.3-12.4-1.8c-1-0.4-1.9-0.8-2.8-1.2c-0.5-0.2-0.9-0.5-1.4-0.7h1
					V1.7h33v0.9h0c-1.6,1.3-3.3,2.5-5.2,3.5C41.3,8.1,37.2,9.3,32.9,9.6"/>
				<path id="XMLID_258_" class="st74" d="M32.9,9.6c-4.3,0.3-8.5-0.3-12.4-1.8c-1-0.4-1.9-0.8-2.8-1.2c-0.5-0.2-0.9-0.5-1.4-0.7
					h0.9V1.7h33V2h0.5c-0.2,0.2-0.4,0.3-0.6,0.5C48.5,3.8,46.8,5,44.9,6C41.3,8,37.2,9.2,32.9,9.6"/>
				<path id="XMLID_257_" class="st75" d="M32.8,9.5c-4.3,0.3-8.5-0.3-12.4-1.8c-1-0.4-1.9-0.8-2.8-1.2c-0.5-0.2-0.9-0.5-1.4-0.7
					h0.9V1.7h33v0.2h0.5c-0.2,0.2-0.4,0.3-0.6,0.5c-1.6,1.3-3.3,2.5-5.1,3.5C41.2,7.9,37.2,9.2,32.8,9.5"/>
				<path id="XMLID_256_" class="st76" d="M32.8,9.4c-4.3,0.3-8.5-0.3-12.4-1.8c-1-0.4-1.9-0.8-2.8-1.2c-0.5-0.2-0.9-0.5-1.4-0.7
					h0.8v-4h33v0.2h0.4C50.4,2,50.2,2.2,50,2.4c-1.6,1.3-3.3,2.5-5.1,3.5C41.2,7.8,37.2,9.1,32.8,9.4"/>
				<path id="XMLID_255_" class="st77" d="M32.8,9.3C28.5,9.6,24.4,9,20.5,7.5c-1-0.4-1.9-0.8-2.8-1.2c-0.5-0.2-0.9-0.5-1.4-0.7h0.8
					V1.7h33l1-0.4c-0.4,0.4-0.8,0.7-1.2,1c-1.6,1.3-3.3,2.5-5.1,3.5C41.2,7.7,37.1,9,32.8,9.3"/>
				<path id="XMLID_254_" class="st78" d="M32.8,9.2c-4.3,0.3-8.5-0.3-12.3-1.8c-1-0.4-1.9-0.8-2.8-1.2c-0.5-0.2-0.9-0.5-1.4-0.7
					h0.8V1.7h33L51,1.2c-0.4,0.4-0.8,0.7-1.2,1c-1.6,1.3-3.3,2.5-5.1,3.5C41.2,7.7,37.1,8.9,32.8,9.2"/>
				<path id="XMLID_253_" class="st79" d="M32.8,9.1c-4.3,0.3-8.4-0.3-12.3-1.7c-1-0.4-1.9-0.8-2.8-1.2c-0.5-0.2-0.9-0.5-1.4-0.7
					h0.7V1.7h33L51,1.1c-0.4,0.4-0.8,0.7-1.2,1c-1.6,1.3-3.3,2.5-5.1,3.5C41.1,7.6,37.1,8.8,32.8,9.1"/>
				<path id="XMLID_252_" class="st80" d="M32.8,9c-4.3,0.3-8.4-0.3-12.2-1.7c-1-0.4-1.9-0.8-2.8-1.2c-0.5-0.2-0.9-0.5-1.3-0.7h0.7
					V1.7h33l0.8-0.6c-0.4,0.3-0.8,0.7-1.2,1c-1.6,1.3-3.3,2.5-5.1,3.5C41.1,7.5,37.1,8.7,32.8,9"/>
				<path id="XMLID_251_" class="st81" d="M32.8,9c-4.3,0.3-8.4-0.3-12.2-1.7c-1-0.4-1.9-0.8-2.8-1.2c-0.5-0.2-0.9-0.5-1.3-0.7h0.7
					V1.7h33L50.9,1c-0.4,0.3-0.8,0.7-1.2,1c-1.6,1.3-3.3,2.5-5.1,3.5C41.1,7.4,37.1,8.7,32.8,9"/>
				<path id="XMLID_250_" class="st82" d="M32.8,8.9c-4.3,0.3-8.4-0.3-12.2-1.7c-0.9-0.4-1.9-0.8-2.8-1.2c-0.5-0.2-0.9-0.5-1.3-0.7
					h0.6V1.7h33l0.7-0.7c-0.4,0.3-0.8,0.7-1.2,1c-1.6,1.3-3.3,2.5-5,3.4C41.1,7.3,37.1,8.6,32.8,8.9"/>
				<path id="XMLID_249_" class="st83" d="M32.8,8.8c-4.2,0.3-8.3-0.3-12.1-1.7c-0.9-0.4-1.9-0.8-2.8-1.2c-0.5-0.2-0.9-0.5-1.3-0.7
					h0.6V1.7h33l0.7-0.8c-0.4,0.3-0.8,0.7-1.1,1c-1.6,1.3-3.2,2.5-5,3.4C41,7.3,37,8.5,32.8,8.8"/>
				<path id="XMLID_248_" class="st84" d="M32.8,8.7C28.6,9,24.5,8.4,20.7,7c-0.9-0.4-1.9-0.8-2.8-1.2c-0.5-0.2-0.9-0.5-1.3-0.7h0.6
					V1.7h33l0.6-0.9c-0.4,0.3-0.8,0.7-1.1,1c-1.6,1.3-3.2,2.5-5,3.4C41,7.2,37,8.4,32.8,8.7"/>
				<path id="XMLID_247_" class="st85" d="M32.8,8.6c-4.2,0.3-8.3-0.3-12.1-1.7c-0.9-0.3-1.9-0.7-2.8-1.2c-0.5-0.2-0.9-0.5-1.3-0.7
					h0.5V1.7h33l0.6-0.9c-0.4,0.3-0.8,0.7-1.1,1c-1.6,1.3-3.2,2.4-5,3.4C41,7.1,37,8.3,32.8,8.6"/>
				<path id="XMLID_246_" class="st86" d="M32.8,8.5c-4.2,0.3-8.3-0.3-12-1.7c-0.9-0.3-1.9-0.7-2.8-1.2c-0.4-0.2-0.9-0.5-1.3-0.7
					h0.5V1.7h33l0.5-1c-0.4,0.3-0.8,0.7-1.1,1c-1.6,1.3-3.2,2.4-5,3.4C41,7,37,8.2,32.8,8.5"/>
				<path id="XMLID_245_" class="st87" d="M32.8,8.4c-4.2,0.3-8.3-0.3-12-1.7C19.8,6.4,18.9,6,18,5.6c-0.4-0.2-0.9-0.5-1.3-0.7h0.4
					V1.7h32.3V1.6c-1.5,1.3-3.2,2.4-5,3.4C40.9,6.9,37,8.1,32.8,8.4"/>
				<path id="XMLID_244_" class="st87" d="M32.8,8.4c-4.2,0.3-8.2-0.3-12-1.7c-0.9-0.3-1.8-0.7-2.7-1.2c-0.4-0.2-0.9-0.5-1.3-0.7
					h0.4V1.7h32.3V1.5c-1.5,1.3-3.2,2.4-5,3.4C40.9,6.9,37,8.1,32.8,8.4"/>
				<path id="XMLID_243_" class="st88" d="M32.8,8.3C28.6,8.6,24.6,8,20.8,6.6c-0.9-0.3-1.8-0.7-2.7-1.2c-0.4-0.2-0.9-0.5-1.3-0.7
					h0.4v-3h32.2V1.5c-1.5,1.3-3.2,2.4-5,3.4C40.9,6.8,37,8,32.8,8.3"/>
				<path id="XMLID_242_" class="st89" d="M32.8,8.2c-4.2,0.3-8.2-0.3-11.9-1.7c-0.9-0.3-1.8-0.7-2.7-1.2c-0.4-0.2-0.9-0.4-1.3-0.7
					h0.3v-3h32.2V1.4c-1.5,1.3-3.2,2.4-4.9,3.4C40.9,6.7,36.9,7.9,32.8,8.2"/>
				<path id="XMLID_241_" class="st90" d="M32.8,8.1c-4.2,0.3-8.2-0.3-11.9-1.7c-0.9-0.3-1.8-0.7-2.7-1.2c-0.4-0.2-0.9-0.4-1.3-0.7
					h0.3V1.7h32.1V1.3c-1.5,1.3-3.2,2.4-4.9,3.4C40.8,6.6,36.9,7.8,32.8,8.1"/>
				<path id="XMLID_240_" class="st91" d="M32.8,8c-4.1,0.3-8.2-0.3-11.9-1.7C20,6,19.1,5.6,18.2,5.2c-0.4-0.2-0.9-0.4-1.3-0.7h0.3
					V1.7h32.1V1.3c-1.5,1.3-3.2,2.4-4.9,3.4C40.8,6.5,36.9,7.7,32.8,8"/>
				<path id="XMLID_239_" class="st92" d="M32.7,7.9c-4.1,0.3-8.1-0.3-11.8-1.7c-0.9-0.3-1.8-0.7-2.7-1.2c-0.4-0.2-0.9-0.4-1.3-0.7
					h0.2V1.7h32V1.2c-1.5,1.3-3.2,2.4-4.9,3.3C40.8,6.4,36.9,7.6,32.7,7.9"/>
				<path id="XMLID_238_" class="st93" d="M32.7,7.9C28.6,8.2,24.6,7.5,21,6.2C20,5.8,19.1,5.4,18.3,5c-0.4-0.2-0.9-0.4-1.3-0.7h0.2
					V1.7h32V1.1c-1.5,1.3-3.2,2.4-4.9,3.3C40.7,6.4,36.9,7.6,32.7,7.9"/>
				<path id="XMLID_237_" class="st94" d="M32.7,7.8C28.6,8.1,24.6,7.5,21,6.1c-0.9-0.3-1.8-0.7-2.7-1.2c-0.4-0.2-0.9-0.4-1.3-0.7
					h0.2V1.7h31.9V1.1c-1.5,1.3-3.1,2.4-4.9,3.3C40.7,6.3,36.9,7.5,32.7,7.8"/>
				<path id="XMLID_236_" class="st95" d="M32.7,7.7C28.6,8,24.7,7.4,21,6c-0.9-0.3-1.8-0.7-2.7-1.2c-0.4-0.2-0.9-0.4-1.3-0.7h0.1
					V1.7H49V1c-1.5,1.3-3.1,2.4-4.9,3.3C40.7,6.2,36.8,7.4,32.7,7.7"/>
				<path id="XMLID_235_" class="st96" d="M32.7,7.6c-4.1,0.3-8-0.3-11.7-1.7c-0.9-0.3-1.8-0.7-2.7-1.2c-0.4-0.2-0.9-0.4-1.3-0.7
					h0.1V1.7H49V0.9c-1.5,1.3-3.1,2.4-4.9,3.3C40.7,6.1,36.8,7.3,32.7,7.6"/>
				<path id="XMLID_234_" class="st97" d="M32.7,7.5c-4.1,0.3-8-0.3-11.7-1.7c-0.9-0.3-1.8-0.7-2.7-1.2C18,4.5,17.5,4.3,17.1,4h0
					V1.7h31.8V0.9c-1.5,1.3-3.1,2.4-4.8,3.3C40.6,6,36.8,7.2,32.7,7.5"/>
				<path id="XMLID_233_" class="st98" d="M32.7,7.4c-4.1,0.3-8-0.3-11.6-1.7c-0.9-0.3-1.8-0.7-2.7-1.1c-0.4-0.2-0.9-0.4-1.3-0.7h0
					V1.7h31.7V0.8c-1.5,1.3-3.1,2.4-4.8,3.3C40.6,6,36.8,7.1,32.7,7.4"/>
				<path id="XMLID_232_" class="st99" d="M32.7,7.3c-4.1,0.3-8-0.3-11.6-1.7c-0.9-0.3-1.8-0.7-2.7-1.1c-0.4-0.2-0.9-0.4-1.3-0.7
					c-0.2-0.1-0.4-0.2-0.6-0.4h0.6V1.7h31.7V0.7C47.3,2,45.7,3.1,44,4C40.6,5.9,36.8,7,32.7,7.3"/>
				<path id="XMLID_231_" class="st100" d="M32.7,7.3c-4,0.3-8-0.3-11.6-1.6c-0.9-0.3-1.8-0.7-2.6-1.1c-0.4-0.2-0.9-0.4-1.3-0.7
					c-0.2-0.1-0.4-0.2-0.6-0.4h0.6V1.7h31.6v-1C47.3,1.9,45.7,3,44,3.9C40.6,5.8,36.8,7,32.7,7.3"/>
				<path id="XMLID_230_" class="st101" d="M32.7,7.2c-4,0.3-7.9-0.3-11.5-1.6c-0.9-0.3-1.8-0.7-2.6-1.1c-0.4-0.2-0.9-0.4-1.3-0.7
					c-0.2-0.1-0.4-0.2-0.6-0.4h0.5V1.7h31.6V0.6c-1.5,1.2-3.1,2.3-4.8,3.3C40.5,5.7,36.7,6.9,32.7,7.2"/>
				<path id="XMLID_229_" class="st102" d="M32.7,7.1c-4,0.3-7.9-0.3-11.5-1.6c-0.9-0.3-1.8-0.7-2.6-1.1c-0.4-0.2-0.9-0.4-1.3-0.7
					c-0.2-0.1-0.4-0.2-0.6-0.4h0.5V1.7h30.4V1.4c-0.4,0.3-0.8,0.6-1.2,0.8c-0.8,0.5-1.6,1-2.5,1.5C40.5,5.6,36.7,6.8,32.7,7.1"/>
				<path id="XMLID_228_" class="st103" d="M32.7,7c-4,0.3-7.9-0.3-11.5-1.6c-0.9-0.3-1.8-0.7-2.6-1.1c-0.4-0.2-0.8-0.4-1.3-0.7
					c-0.2-0.1-0.4-0.2-0.6-0.4h0.4V1.7h30.3V1.4c-0.4,0.3-0.8,0.6-1.2,0.8c-0.8,0.5-1.6,1-2.5,1.5C40.5,5.6,36.7,6.7,32.7,7"/>
				<path id="XMLID_227_" class="st104" d="M32.7,6.9c-4,0.3-7.9-0.3-11.4-1.6c-0.9-0.3-1.8-0.7-2.6-1.1c-0.4-0.2-0.8-0.4-1.3-0.7
					c-0.2-0.1-0.4-0.2-0.6-0.4h0.4V1.7h30.3V1.3c-0.4,0.3-0.8,0.6-1.2,0.8c-0.8,0.5-1.6,1-2.5,1.5C40.5,5.5,36.7,6.6,32.7,6.9"/>
				<path id="XMLID_226_" class="st104" d="M32.7,6.8c-4,0.3-7.9-0.3-11.4-1.6c-1.8-0.7-3.5-1.5-5.1-2.5h1v-1h30.3V1.2
					c-0.4,0.3-0.8,0.6-1.2,0.8c-0.8,0.5-1.6,1-2.4,1.5C40.4,5.4,36.7,6.5,32.7,6.8"/>
				<path id="XMLID_225_" class="st105" d="M32.7,6.7c-4,0.3-7.8-0.3-11.4-1.6c-1.8-0.7-3.5-1.5-5.1-2.5h0.9V1.7h30.2V1.2
					C47,1.4,46.6,1.7,46.2,2c-0.8,0.5-1.6,1-2.4,1.5C40.4,5.3,36.7,6.5,32.7,6.7"/>
				<path id="XMLID_224_" class="st106" d="M32.7,6.7c-4,0.3-7.8-0.3-11.4-1.6c-1.8-0.7-3.5-1.5-5.1-2.5h0.9V1.7h30.2V1.1
					c-0.4,0.3-0.8,0.6-1.2,0.8c-0.8,0.5-1.6,1-2.4,1.5C40.4,5.2,36.6,6.4,32.7,6.7"/>
				<path id="XMLID_223_" class="st107" d="M32.7,6.6c-4,0.3-7.8-0.3-11.3-1.6c-1.8-0.7-3.5-1.5-5.1-2.5h0.9V1.7h30.1V1
					c-0.4,0.3-0.8,0.6-1.2,0.8c-0.8,0.5-1.6,1-2.4,1.5C40.3,5.1,36.6,6.3,32.7,6.6"/>
				<path id="XMLID_222_" class="st108" d="M32.7,6.5c-3.9,0.3-7.8-0.3-11.3-1.6c-1.8-0.7-3.4-1.5-5-2.5h0.8V1.7h30.1V0.9
					c-0.4,0.3-0.8,0.6-1.2,0.8c-0.8,0.5-1.6,1-2.4,1.5C40.3,5.1,36.6,6.2,32.7,6.5"/>
				<path id="XMLID_221_" class="st108" d="M32.7,6.4c-3.9,0.3-7.7-0.3-11.3-1.6c-1.8-0.7-3.4-1.5-5-2.5h0.8V1.7h30V0.9
					c-0.4,0.3-0.8,0.6-1.1,0.8c-0.8,0.5-1.6,1-2.4,1.5C40.3,5,36.6,6.1,32.7,6.4"/>
				<path id="XMLID_220_" class="st109" d="M32.6,6.3C28.7,6.6,24.9,6,21.4,4.7c-1.8-0.7-3.4-1.5-5-2.5h0.7V1.7H46v0
					c-0.8,0.5-1.6,1-2.4,1.5C40.3,4.9,36.6,6,32.6,6.3"/>
				<path id="XMLID_219_" class="st110" d="M32.6,6.2c-3.9,0.3-7.7-0.3-11.2-1.6c-1.7-0.6-3.4-1.5-5-2.5h0.7V1.7h28.8V1.6
					c-0.8,0.5-1.6,1-2.4,1.5C40.2,4.8,36.6,5.9,32.6,6.2"/>
				<path id="XMLID_218_" class="st111" d="M32.6,6.1C28.7,6.4,25,5.9,21.5,4.6c-1.7-0.6-3.4-1.5-5-2.5h0.7V1.7h28.8V1.5
					c-0.8,0.5-1.6,1-2.4,1.5C40.2,4.7,36.5,5.9,32.6,6.1"/>
				<path id="XMLID_217_" class="st112" d="M32.6,6.1C28.7,6.3,25,5.8,21.5,4.5c-1.7-0.6-3.4-1.5-5-2.5h0.6V1.7h28.7V1.4
					c-0.8,0.5-1.6,1-2.4,1.5C40.2,4.7,36.5,5.8,32.6,6.1"/>
				<path id="XMLID_216_" class="st113" d="M32.6,6C28.7,6.3,25,5.7,21.5,4.4c-1.7-0.6-3.4-1.5-5-2.4h0.6V1.7h28.7V1.3
					c-0.8,0.5-1.6,1-2.4,1.5C40.2,4.6,36.5,5.7,32.6,6"/>
				<path id="XMLID_215_" class="st114" d="M32.6,5.9C28.7,6.2,25,5.6,21.6,4.3c-1.7-0.6-3.4-1.5-4.9-2.4h0.5V1.7h28.6V1.3
					c-0.8,0.5-1.6,1-2.4,1.5C40.1,4.5,36.5,5.6,32.6,5.9"/>
				<path id="XMLID_214_" class="st115" d="M32.6,5.8c-3.9,0.3-7.6-0.3-11-1.6c-1.7-0.6-3.4-1.5-4.9-2.4h0.5V1.7h28.6V1.2
					c-0.8,0.5-1.6,1-2.4,1.4C40.1,4.4,36.5,5.5,32.6,5.8"/>
				<path id="XMLID_213_" class="st116" d="M32.6,5.7C28.8,6,25,5.4,21.6,4.2c-1.7-0.6-3.4-1.5-4.9-2.4h0.5V1.7h28.5V1.1
					c-0.8,0.5-1.6,1-2.4,1.4C40.1,4.3,36.5,5.4,32.6,5.7"/>
				<path id="XMLID_212_" class="st117" d="M32.6,5.6c-3.8,0.3-7.6-0.3-11-1.6c-1.7-0.6-3.4-1.4-4.9-2.4l0.4,0h28.5V1.1
					c-0.8,0.5-1.5,1-2.4,1.4C40.1,4.3,36.4,5.4,32.6,5.6"/>
				<path id="XMLID_211_" class="st118" d="M32.6,5.6C28.8,5.8,25.1,5.3,21.7,4c-1.7-0.6-3.3-1.4-4.9-2.4l0.4,0.1h28.5V1
					c-0.8,0.5-1.5,1-2.3,1.4C40,4.2,36.4,5.3,32.6,5.6"/>
				<path id="XMLID_210_" class="st119" d="M32.6,5.5c-3.8,0.3-7.5-0.3-10.9-1.6c-1.7-0.6-3.3-1.4-4.9-2.4l0.3,0.2h28.4V0.9
					c-0.8,0.5-1.5,1-2.3,1.4C40,4.1,36.4,5.2,32.6,5.5"/>
				<path id="XMLID_209_" class="st120" d="M32.6,5.4c-3.8,0.3-7.5-0.3-10.9-1.6c-1.7-0.6-3.3-1.4-4.9-2.4l0.3,0.2h28.4V0.8
					c-0.8,0.5-1.5,1-2.3,1.4C40,4,36.4,5.1,32.6,5.4"/>
				<path id="XMLID_208_" class="st121" d="M32.6,5.3C28.8,5.6,25.1,5,21.7,3.7c-1.7-0.6-3.3-1.4-4.8-2.4l0.3,0.3h28.3V0.8
					c-0.8,0.5-1.5,1-2.3,1.4C39.9,3.9,36.4,5,32.6,5.3"/>
				<path id="XMLID_207_" class="st122" d="M32.6,5.2c-3.8,0.3-7.4-0.3-10.8-1.5c-1.7-0.6-3.3-1.4-4.8-2.4l0.2,0.4h28.3v-1
					c-0.7,0.5-1.5,1-2.3,1.4C39.9,3.8,36.4,4.9,32.6,5.2"/>
				<path id="XMLID_206_" class="st122" d="M32.6,5.1c-3.8,0.3-7.4-0.3-10.8-1.5C20.1,3,18.5,2.2,17,1.2l0.2,0.5h28.2v-1
					c-0.7,0.5-1.5,1-2.3,1.4C39.9,3.8,36.3,4.9,32.6,5.1"/>
				<path id="XMLID_205_" class="st123" d="M32.6,5c-3.8,0.3-7.4-0.3-10.8-1.5c-1.7-0.6-3.3-1.4-4.8-2.4l0.1,0.5h27.1V1.3
					C43.8,1.5,43.4,1.7,43,2C39.9,3.7,36.3,4.8,32.6,5"/>
				<path id="XMLID_204_" class="st124" d="M32.6,5c-3.8,0.3-7.4-0.3-10.7-1.5C20.2,2.8,18.6,2,17,1.1l0.1,0.6h27V1.2
					c-0.4,0.2-0.8,0.5-1.2,0.7C39.8,3.6,36.3,4.7,32.6,5"/>
				<path id="XMLID_203_" class="st125" d="M32.6,4.9c-3.7,0.3-7.4-0.3-10.7-1.5c-1.7-0.6-3.3-1.4-4.8-2.4l0.1,0.7h27V1.1
					c-0.4,0.2-0.8,0.5-1.2,0.7C39.8,3.5,36.3,4.6,32.6,4.9"/>
				<path id="XMLID_202_" class="st126" d="M32.6,4.8c-3.7,0.3-7.3-0.3-10.7-1.5c-1.7-0.6-3.3-1.4-4.8-2.3l0,0.8h26.9V1.1
					c-0.4,0.2-0.8,0.5-1.2,0.7C39.8,3.4,36.3,4.5,32.6,4.8"/>
				<path id="XMLID_201_" class="st127" d="M32.5,4.7C28.8,5,25.2,4.4,21.9,3.2c-1.7-0.6-3.2-1.4-4.7-2.3v0.8h25.7v0
					C39.8,3.4,36.3,4.4,32.5,4.7"/>
				<path id="XMLID_200_" class="st128" d="M32.5,4.6c-3.7,0.3-7.3-0.3-10.6-1.5c-1.7-0.6-3.2-1.4-4.7-2.3v0.9h25.7V1.6
					C39.7,3.3,36.3,4.3,32.5,4.6"/>
				<path id="XMLID_199_" class="st129" d="M32.5,4.5C28.8,4.8,25.3,4.2,22,3c-1.6-0.6-3.2-1.4-4.7-2.3v1h25.6V1.5
					C39.7,3.2,36.2,4.3,32.5,4.5"/>
				<path id="XMLID_198_" class="st130" d="M32.5,4.4C28.8,4.7,25.3,4.2,22,2.9c-1.6-0.6-3.2-1.4-4.7-2.3v1h25.5V1.4
					C39.7,3.1,36.2,4.2,32.5,4.4"/>
				<path id="XMLID_197_" class="st131" d="M32.5,4.4C28.8,4.6,25.3,4.1,22,2.9c-0.8-0.3-1.6-0.7-2.4-1c-0.4-0.2-0.8-0.4-1.2-0.6
					v0.5h24.3V1.4C39.7,3,36.2,4.1,32.5,4.4"/>
				<path id="XMLID_196_" class="st132" d="M32.5,4.3C28.9,4.5,25.3,4,22,2.8c-0.8-0.3-1.6-0.6-2.4-1c-0.4-0.2-0.8-0.4-1.2-0.6v0.5
					h24.2V1.3C39.6,3,36.2,4,32.5,4.3"/>
				<path id="XMLID_195_" class="st133" d="M32.5,4.2c-3.7,0.3-7.2-0.3-10.4-1.5c-0.8-0.3-1.6-0.6-2.4-1c-0.4-0.2-0.8-0.4-1.2-0.6
					v0.6h24.2V1.2C39.6,2.9,36.2,3.9,32.5,4.2"/>
				<path id="XMLID_194_" class="st134" d="M32.5,4.1c-3.6,0.3-7.2-0.3-10.4-1.5c-0.8-0.3-1.6-0.6-2.4-1v0.1h22.9V1.1
					C39.6,2.8,36.2,3.8,32.5,4.1"/>
				<path id="XMLID_193_" class="st135" d="M32.5,4c-3.6,0.3-7.1-0.3-10.4-1.5c-0.8-0.3-1.6-0.6-2.4-1v0.2h22.9V1
					C39.6,2.7,36.1,3.8,32.5,4"/>
				<path id="XMLID_192_" class="st136" d="M32.5,3.9c-3.6,0.3-7.1-0.3-10.4-1.5c-0.8-0.3-1.6-0.6-2.4-1v0.2h22.8V1
					C39.5,2.6,36.1,3.7,32.5,3.9"/>
				<path id="XMLID_191_" class="st136" d="M32.5,3.8c-3.6,0.3-7.1-0.3-10.3-1.5c-0.8-0.3-1.6-0.6-2.4-1v0.3h22.7V0.9
					C39.5,2.5,36.1,3.6,32.5,3.8"/>
				<path id="XMLID_190_" class="st137" d="M32.5,3.8C28.9,4,25.4,3.5,22.2,2.3c-0.8-0.3-1.6-0.6-2.4-1v0.4h22.7V0.8
					C39.5,2.5,36.1,3.5,32.5,3.8"/>
				<path id="XMLID_189_" class="st138" d="M32.5,3.7c-3.6,0.3-7.1-0.3-10.3-1.5c-0.8-0.3-1.6-0.6-2.3-1v0.5h22.6V0.7
					C39.4,2.4,36.1,3.4,32.5,3.7"/>
				<path id="XMLID_188_" class="st139" d="M32.5,3.6c-3.6,0.3-7-0.3-10.2-1.5c-0.8-0.3-1.6-0.6-2.3-1v0.5h22.5v-1
					C39.4,2.3,36.1,3.3,32.5,3.6"/>
				<path id="XMLID_187_" class="st140" d="M32.5,3.5c-3.6,0.3-7-0.3-10.2-1.5c-0.8-0.3-1.6-0.6-2.3-1v0.6h22.5V0.6
					C39.4,2.2,36,3.2,32.5,3.5"/>
				<path id="XMLID_186_" class="st141" d="M32.5,3.4c-3.6,0.3-7-0.3-10.2-1.4c-0.8-0.3-1.6-0.6-2.3-1v0.7H40v0
					c-0.8,0.3-1.6,0.6-2.4,0.9C36,3,34.2,3.3,32.5,3.4"/>
				<path id="XMLID_185_" class="st142" d="M32.5,3.3c-3.5,0.3-7-0.3-10.1-1.4c-0.8-0.3-1.6-0.6-2.3-1v0.8h20V1.5
					c-0.8,0.3-1.6,0.6-2.4,0.9C36,2.9,34.2,3.2,32.5,3.3"/>
				<path id="XMLID_184_" class="st143" d="M32.5,3.3c-3.5,0.3-7-0.3-10.1-1.4c-0.8-0.3-1.6-0.6-2.3-1v0.9h20V1.5
					c-0.8,0.3-1.6,0.6-2.4,0.9C35.9,2.8,34.2,3.1,32.5,3.3"/>
				<path id="XMLID_183_" class="st144" d="M32.5,3.2c-3.5,0.3-6.9-0.3-10.1-1.4c-0.8-0.3-1.6-0.6-2.3-1v0.9H40V1.4
					c-0.8,0.3-1.6,0.6-2.4,0.9C35.9,2.7,34.2,3,32.5,3.2"/>
				<path id="XMLID_182_" class="st145" d="M32.4,3.1c-3.5,0.3-6.9-0.3-10-1.4v0h17.5V1.3c-0.8,0.3-1.6,0.6-2.4,0.9
					C35.9,2.6,34.2,3,32.4,3.1"/>
				<path id="XMLID_181_" class="st146" d="M32.4,3c-3.5,0.3-6.9-0.3-10-1.4v0.1h17.5V1.2c-0.8,0.3-1.6,0.6-2.4,0.9
					C35.9,2.6,34.2,2.9,32.4,3"/>
				<path id="XMLID_180_" class="st147" d="M32.4,2.9c-3.5,0.3-6.9-0.3-10-1.4v0.2h17.4V1.1c-0.8,0.3-1.6,0.6-2.4,0.8
					C35.9,2.5,34.2,2.8,32.4,2.9"/>
				<path id="XMLID_179_" class="st148" d="M32.4,2.8c-3.5,0.3-6.8-0.3-9.9-1.4v0.3h17.4V1.1c-0.8,0.3-1.6,0.6-2.4,0.8
					C35.9,2.4,34.2,2.7,32.4,2.8"/>
				<path id="XMLID_178_" class="st148" d="M32.4,2.7C29,3,25.6,2.5,22.5,1.3v0.3h17.3V1c-0.8,0.3-1.6,0.6-2.4,0.8
					C35.8,2.3,34.2,2.6,32.4,2.7"/>
				<path id="XMLID_177_" class="st149" d="M32.4,2.7c-3.5,0.3-6.8-0.3-9.9-1.4v0.4h17.3V0.9c-0.8,0.3-1.6,0.6-2.4,0.8
					C35.8,2.2,34.1,2.5,32.4,2.7"/>
				<path id="XMLID_176_" class="st150" d="M32.4,2.6c-3.4,0.3-6.8-0.3-9.9-1.4v0.5h14.9v0C35.8,2.1,34.1,2.4,32.4,2.6"/>
				<path id="XMLID_175_" class="st151" d="M32.4,2.5c-3.4,0.3-6.8-0.3-9.8-1.4v0.6h14.8V1.6C35.8,2,34.1,2.4,32.4,2.5"/>
				<path id="XMLID_174_" class="st152" d="M32.4,2.4C29,2.6,25.7,2.1,22.6,1v0.7h14.8V1.5C35.8,2,34.1,2.3,32.4,2.4"/>
				<path id="XMLID_173_" class="st153" d="M32.4,2.3c-3.4,0.2-6.7-0.3-9.8-1.4v0.7h14.7V1.4C35.8,1.9,34.1,2.2,32.4,2.3"/>
				<path id="XMLID_172_" class="st154" d="M32.4,2.2C29,2.5,25.7,2,22.7,0.8v0.8h14.7V1.3C35.7,1.8,34.1,2.1,32.4,2.2"/>
				<path id="XMLID_171_" class="st155" d="M32.4,2.1c-3.4,0.2-6.7-0.3-9.7-1.4v0.9h14.6V1.2C35.7,1.7,34.1,2,32.4,2.1"/>
				<path id="XMLID_170_" class="st156" d="M32.4,2.1c-3.4,0.2-6.7-0.3-9.7-1.4v1h14.6V1.2C35.7,1.6,34.1,1.9,32.4,2.1"/>
				<path id="XMLID_169_" class="st157" d="M32.4,2c-3.4,0.2-6.6-0.3-9.6-1.4v1.1h14.5V1.1C35.7,1.5,34.1,1.9,32.4,2"/>
				<path id="XMLID_168_" class="st158" d="M32.4,1.9C30.7,2,29,1.9,27.4,1.7c-0.8-0.1-1.6-0.3-2.4-0.5v0.4h12.2V1
					C35.7,1.5,34.1,1.8,32.4,1.9"/>
				<path id="XMLID_167_" class="st159" d="M32.4,1.8c-1.7,0.1-3.3,0.1-4.9-0.2v0h9.8V0.9C35.7,1.4,34,1.7,32.4,1.8"/>
				<path id="XMLID_166_" class="st160" d="M32.4,1.7c-1.7,0.1-3.3,0.1-4.9-0.2v0.1h9.7V0.8C35.6,1.3,34,1.6,32.4,1.7"/>
				<path id="XMLID_165_" class="st161" d="M32.4,1.6c-1.7,0.1-3.3,0.1-4.9-0.2v0.2L32.4,1.6L32.4,1.6z"/>
				<path id="XMLID_164_" class="st162" d="M32.3,1.5c-1.7,0.1-3.3,0.1-4.9-0.2v0.3h4.9V1.5z"/>
				<path id="XMLID_163_" class="st163" d="M32.3,1.7h-4.9H32.3z"/>
				<path id="XMLID_162_" class="st164" d="M32.3,1.7h-9.4H32.3z"/>
				<path id="XMLID_161_" class="st165" d="M32.3,1.7h-9.4H32.3z"/>
				<path id="XMLID_160_" class="st166" d="M32.3,1.7H23H32.3z"/>
				<path id="XMLID_159_" class="st167" d="M32.3,1.7H17.1H32.3z"/>
				<path id="XMLID_158_" class="st167" d="M32.3,1.7H17.1H32.3z"/>
				<path id="XMLID_157_" class="st168" d="M32.3,1.7H17.1H32.3z"/>
				<path id="XMLID_156_" class="st169" d="M32.3,1.7H17.1H32.3z"/>
				<path id="XMLID_155_" class="st170" d="M32.3,1.7H17.1H32.3z"/>
				<path id="XMLID_154_" class="st171" d="M32.3,1.7H17.1H32.3z"/>
				<path id="XMLID_153_" class="st172" d="M32.3,1.7H17.1H32.3z"/>
				<path id="XMLID_152_" class="st173" d="M32.3,1.7H17.1H32.3z"/>
				<path id="XMLID_151_" class="st174" d="M32.3,1.7H17.1H32.3z"/>
				<path id="XMLID_150_" class="st174" d="M32.3,1.7H17.1H32.3z"/>
				<path id="XMLID_149_" class="st175" d="M32.3,1.7H17.1H32.3z"/>
				<path id="XMLID_148_" class="st176" d="M32.3,1.7H17.1H32.3z"/>
				<path id="XMLID_147_" class="st177" d="M32.3,1.7H17.1H32.3z"/>
				<path id="XMLID_146_" class="st178" d="M32.3,1.7H17.1H32.3z"/>
				<path id="XMLID_145_" class="st179" d="M32.2,1.7H17.1H32.2z"/>
				<path id="XMLID_144_" class="st180" d="M32.2,1.7H17.1H32.2z"/>
				<path id="XMLID_143_" class="st181" d="M32.2,1.7H17.1H32.2z"/>
				<path id="XMLID_142_" class="st181" d="M32.2,1.7H17.1H32.2z"/>
				<path id="XMLID_141_" class="st182" d="M32.2,1.7H17.1H32.2z"/>
				<path id="XMLID_140_" class="st183" d="M32.2,1.7H17.1H32.2z"/>
				<path id="XMLID_139_" class="st184" d="M32.2,1.7H17.1H32.2z"/>
				<path id="XMLID_138_" class="st185" d="M32.2,1.7H17.1H32.2z"/>
				<path id="XMLID_137_" class="st186" d="M32.2,1.7H17.1H32.2z"/>
				<path id="XMLID_136_" class="st187" d="M32.2,1.7H17.1H32.2z"/>
				<path id="XMLID_135_" class="st188" d="M32.2,1.7h-15H32.2z"/>
				<path id="XMLID_134_" class="st189" d="M32.2,1.7h-15H32.2z"/>
				<path id="XMLID_133_" class="st190" d="M32.2,1.7h-15H32.2z"/>
				<path id="XMLID_132_" class="st191" d="M32.2,1.7h-15H32.2z"/>
				<path id="XMLID_131_" class="st192" d="M32.2,1.7h-15H32.2z"/>
				<path id="XMLID_130_" class="st193" d="M32.2,1.7h-15H32.2z"/>
				<path id="XMLID_129_" class="st194" d="M32.2,1.7h-15H32.2z"/>
				<path id="XMLID_128_" class="st195" d="M32.2,1.7h-15H32.2z"/>
				<path id="XMLID_127_" class="st196" d="M32.2,1.7h-15H32.2z"/>
				<path id="XMLID_126_" class="st197" d="M32.1,1.7h-15H32.1z"/>
				<path id="XMLID_125_" class="st198" d="M32.1,1.7h-15H32.1z"/>
				<path id="XMLID_124_" class="st199" d="M32.1,1.7h-15H32.1z"/>
				<path id="XMLID_123_" class="st200" d="M32.1,1.7h-15H32.1z"/>
				<path id="XMLID_122_" class="st201" d="M32.1,1.7h-15H32.1z"/>
				<path id="XMLID_121_" class="st202" d="M32.1,1.7h-15H32.1z"/>
				<path id="XMLID_120_" class="st203" d="M32.1,1.7h-15H32.1z"/>
				<path id="XMLID_119_" class="st204" d="M32.1,1.7h-15H32.1z"/>
				<path id="XMLID_118_" class="st205" d="M32.1,1.7h-15H32.1z"/>
				<path id="XMLID_117_" class="st206" d="M32.1,1.7h-15H32.1z"/>
				<path id="XMLID_116_" class="st207" d="M32.1,1.7H17.1H32.1z"/>
				<path id="XMLID_115_" class="st208" d="M32.1,1.7H17.1H32.1z"/>
				<path id="XMLID_114_" class="st209" d="M32.1,1.7H17.1H32.1z"/>
				<path id="XMLID_113_" class="st210" d="M32.1,1.7H17.1H32.1z"/>
				<path id="XMLID_112_" class="st211" d="M32.1,1.7H17.1H32.1z"/>
				<path id="XMLID_111_" class="st212" d="M32.1,1.7H17.1H32.1z"/>
				<path id="XMLID_110_" class="st213" d="M32.1,1.7H17.1H32.1z"/>
				<path id="XMLID_109_" class="st214" d="M32.1,1.7H17.1H32.1z"/>
				<path id="XMLID_108_" class="st215" d="M32,1.7H17.1H32z"/>
				<path id="XMLID_107_" class="st216" d="M32,1.7H17.1H32z"/>
				<path id="XMLID_106_" class="st217" d="M32,1.7H17.1H32z"/>
				<path id="XMLID_105_" class="st218" d="M32,1.7H17.1H32z"/>
				<path id="XMLID_104_" class="st219" d="M32,1.7H17.1H32z"/>
				<path id="XMLID_103_" class="st220" d="M32,1.7H17.1H32z"/>
				<path id="XMLID_102_" class="st221" d="M32,1.7H17.1H32z"/>
				<path id="XMLID_101_" class="st222" d="M32,1.7H17.1H32z"/>
				<path id="XMLID_100_" class="st223" d="M32,1.7H17.1H32z"/>
				<path id="XMLID_99_" class="st224" d="M32,1.7H17.1H32z"/>
				<path id="XMLID_98_" class="st225" d="M32,1.7H17.1H32z"/>
				<path id="XMLID_97_" class="st226" d="M32,1.7H17.1H32z"/>
				<path id="XMLID_96_" class="st227" d="M32,1.7H17.1H32z"/>
				<path id="XMLID_95_" class="st228" d="M32,1.7H17.1H32z"/>
				<path id="XMLID_94_" class="st229" d="M32,1.7H17.1H32z"/>
				<path id="XMLID_93_" class="st230" d="M32,1.7H17.1H32z"/>
				<path id="XMLID_92_" class="st231" d="M32,1.7H17.1H32z"/>
				<path id="XMLID_91_" class="st232" d="M32,1.7H17.1H32z"/>
				<path id="XMLID_90_" class="st233" d="M32,1.7H17.1H32z"/>
				<path id="XMLID_89_" class="st234" d="M31.9,1.7H17.1H31.9z"/>
				<path id="XMLID_88_" class="st235" d="M31.9,1.7H17.1H31.9z"/>
				<path id="XMLID_87_" class="st236" d="M31.9,1.7H17.1H31.9z"/>
				<path id="XMLID_86_" class="st237" d="M31.9,1.7H17.1H31.9z"/>
				<path id="XMLID_85_" class="st238" d="M31.9,1.7H17.1H31.9z"/>
				<path id="XMLID_84_" class="st239" d="M31.9,1.7H17.1H31.9z"/>
				<path id="XMLID_83_" class="st240" d="M31.9,1.7H17.1H31.9z"/>
				<path id="XMLID_82_" class="st241" d="M31.9,1.7H17.1H31.9z"/>
				<path id="XMLID_81_" class="st242" d="M31.9,1.7H17.1H31.9z"/>
				<path id="XMLID_80_" class="st243" d="M31.9,1.7H17.1H31.9z"/>
				<path id="XMLID_79_" class="st243" d="M31.9,1.7H17.1H31.9z"/>
				<path id="XMLID_78_" class="st244" d="M31.9,1.7H17.1H31.9z"/>
				<path id="XMLID_77_" class="st245" d="M31.9,1.7H17.1H31.9z"/>
				<path id="XMLID_76_" class="st246" d="M31.9,1.7H17.1H31.9z"/>
				<path id="XMLID_75_" class="st247" d="M31.9,1.7H17.1H31.9z"/>
				<path id="XMLID_74_" class="st248" d="M31.9,1.7H17.1H31.9z"/>
				<path id="XMLID_73_" class="st249" d="M31.9,1.7H17.1H31.9z"/>
				<path id="XMLID_71_" class="st250" d="M31.9,1.7H17.1H31.9z"/>
			</g>
			<g id="XMLID_387_">
				<g id="XMLID_391_">
					<path id="XMLID_392_" class="st2" d="M28.8,20.5H24l-0.5,1.1h-3.7l6.1-13.6h1.1L33,21.7h-3.7L28.8,20.5z M26.4,14.7l-1.2,3.1
						h2.3L26.4,14.7z"/>
				</g>
				<g id="XMLID_388_">
					<path id="XMLID_389_" class="st2" d="M47.5,8.1v13.6H44V16l-2.8,3.2h-1.1l-2.8-3.2v5.6h-3.5V8.1H35l5.7,6.9l5.7-6.9H47.5z"/>
				</g>
			</g>
			<g id="XMLID_68_">
				<path id="XMLID_385_" class="st251" d="M23.2,24.7c1.3,0,2.4,0.6,3,1.7l-1.3,0.9c-0.4-0.7-1-1.1-1.7-1.1c-1,0-1.8,0.7-1.8,1.8
					c0,0.5,0.2,1,0.5,1.3c0.3,0.3,0.8,0.5,1.3,0.5c0.7,0,1.3-0.4,1.7-1.1l1.3,0.9c-0.6,1.1-1.7,1.7-3,1.7c-1.9,0-3.6-1.5-3.5-3.4
					C19.7,26.2,21.3,24.7,23.2,24.7z"/>
				<path id="XMLID_378_" class="st251" d="M28.2,24.9h1.7v5h2.7v1.5h-4.4V24.9z"/>
				<path id="XMLID_376_" class="st251" d="M34.3,24.9H36v3.9c0,0.7,0.5,1.2,1.2,1.2s1.2-0.5,1.2-1.2v-3.9H40v3.7
					c0,1.7-1.2,2.9-2.9,2.9c-1.7,0-2.9-1.1-2.9-2.9V24.9z"/>
				<path id="XMLID_69_" class="st251" d="M45.3,31.4h-3v-6.5h2.3c1.3,0,2.2,0.8,2.2,1.9c0,0.4-0.1,0.8-0.4,1.1
					c0.7,0.3,1.1,0.8,1.1,1.6C47.5,30.6,46.6,31.4,45.3,31.4z M43.9,26.3v1.1h0.6c0.4,0,0.7-0.2,0.7-0.6c0-0.3-0.2-0.6-0.7-0.6H43.9
					z M45.2,28.8h-1.3v1.1h1.3c0.4,0,0.7-0.2,0.7-0.6C45.9,29,45.6,28.8,45.2,28.8z"/>
			</g>
		</g>
	</g>
</g>
</svg>
